<svg xmlns="http://www.w3.org/2000/svg" width="28.598" height="18.822" viewBox="0 0 28.598 18.822"><defs><style>.a{fill:#00a4ff;}</style></defs><path class="a" d="M645.864,2129.909v1.5a13.654,13.654,0,0,0-4.6,3.5,6.433,6.433,0,0,0-1.386,3.975,3.016,3.016,0,0,0,.365,1.751.945.945,0,0,0,.8.512,4.223,4.223,0,0,0,1.277-.275,4.6,4.6,0,0,1,1.459-.273,3.574,3.574,0,0,1,2.608,1.113,3.7,3.7,0,0,1,1.111,2.716,3.971,3.971,0,0,1-1.349,3.01,4.727,4.727,0,0,1-3.356,1.259,5.916,5.916,0,0,1-4.412-2.116,7.362,7.362,0,0,1-1.972-5.217,10.941,10.941,0,0,1,2.426-6.8A14.03,14.03,0,0,1,645.864,2129.909Zm17.4.109v1.386a15.362,15.362,0,0,0-4.851,3.794,6.722,6.722,0,0,0-1.167,3.939,2.441,2.441,0,0,0,.4,1.532,1.1,1.1,0,0,0,.838.511,3.974,3.974,0,0,0,1.205-.292,4.646,4.646,0,0,1,1.6-.292,3.638,3.638,0,0,1,2.608,1.076,3.537,3.537,0,0,1,1.111,2.645,4.116,4.116,0,0,1-1.4,3.1,4.863,4.863,0,0,1-3.448,1.313,5.818,5.818,0,0,1-4.341-2.08,7.312,7.312,0,0,1-1.933-5.179,11.126,11.126,0,0,1,2.445-6.985A13.11,13.11,0,0,1,663.263,2130.018Z" transform="translate(-636.416 -2129.909)"/></svg>