<svg xmlns="http://www.w3.org/2000/svg" width="51.891" height="49.125" viewBox="0 0 51.891 49.125"><defs><style>.a{fill:#00a4ff;}</style></defs><g transform="translate(-66.525 -1648.141)"><path class="a" d="M117.4,1650.172a1.016,1.016,0,1,1,.718-.3A1.019,1.019,0,0,1,117.4,1650.172Z"/><path class="a" d="M106.02,1664.894h-3.764a4.419,4.419,0,1,0-7.511-4.655,3.734,3.734,0,0,0-4.662,0,4.419,4.419,0,1,0-7.511,4.655H78.808a2.442,2.442,0,0,0-2.439,2.439v3.551a2.441,2.441,0,0,0,1.218,2.11v16.678a3.458,3.458,0,0,0,3.454,3.453h22.746a3.458,3.458,0,0,0,3.454-3.453v-16.678a2.441,2.441,0,0,0,1.218-2.11v-3.551A2.442,2.442,0,0,0,106.02,1664.894Zm.408,2.439v3.551a.408.408,0,0,1-.408.408h-4l-2.478-4.367h6.483A.408.408,0,0,1,106.428,1667.333Zm-15.92-.408-3.109,5.433-.184-.689a1.014,1.014,0,0,0-1.244-.718l-.719.193,2.406-4.219Zm1.954.674,2.111,3.752H90.315Zm1.951-.674H97.2l3.084,5.435-.727-.195a1.014,1.014,0,0,0-1.244.718l-.177.664Zm1.746-4.435a2.39,2.39,0,1,1,2.39,2.39h-2.39Zm-3.745-1.037a1.714,1.714,0,1,1-1.713,1.713A1.715,1.715,0,0,1,92.414,1661.453ZM86.28,1660.1a2.393,2.393,0,0,1,2.39,2.391v2.39H86.28a2.391,2.391,0,0,1,0-4.781Zm-7.88,7.234a.408.408,0,0,1,.408-.408h6.511l-2.49,4.367H78.808a.409.409,0,0,1-.408-.409v-3.55Zm1.219,22.339v-16.349h2.7c.012.017.022.036.035.053a1.014,1.014,0,0,0,1.067.36l2.089-.56.559,2.089a1.017,1.017,0,0,0,.851.745.964.964,0,0,0,.131.009,1.016,1.016,0,0,0,.881-.512l.618-1.08V1684.7a1.015,1.015,0,1,0,2.031,0v-11.314h3.656v17.712h-13.2A1.424,1.424,0,0,1,79.619,1689.672Zm24.168,1.422H96.273v-16.719l1.316,2.34a1.018,1.018,0,0,0,.885.518,1.082,1.082,0,0,0,.127-.008,1.014,1.014,0,0,0,.854-.745l.559-2.09,2.09.561a1.016,1.016,0,0,0,1.146-1.483l-.082-.145h2.042v16.349A1.424,1.424,0,0,1,103.787,1691.094Z"/><path class="a" d="M89.571,1687.388a1.014,1.014,0,1,0,.718.3A1.022,1.022,0,0,0,89.571,1687.388Z"/><path class="a" d="M117.4,1684.075h-.7a1.016,1.016,0,1,0,0,2.031h.7a1.016,1.016,0,1,0,0-2.031Z"/><path class="a" d="M111.772,1684.075a1.016,1.016,0,0,0,0,2.031h.7a1.016,1.016,0,0,0,0-2.031Z"/><path class="a" d="M114.584,1686.19a1.015,1.015,0,0,0-1.015,1.016v.7a1.015,1.015,0,1,0,2.031,0v-.7A1.016,1.016,0,0,0,114.584,1686.19Z"/><path class="a" d="M115.6,1682.279a1.015,1.015,0,1,0-2.031,0v.7a1.015,1.015,0,1,0,2.031,0Z"/><path class="a" d="M72.467,1664.286a1.016,1.016,0,0,0,0,2.031h.7a1.016,1.016,0,1,0,0-2.031Z"/><path class="a" d="M67.54,1666.317h.7a1.016,1.016,0,0,0,0-2.031h-.7a1.016,1.016,0,0,0,0,2.031Z"/><path class="a" d="M70.352,1666.4a1.015,1.015,0,0,0-1.015,1.016v.7a1.015,1.015,0,1,0,2.031,0v-.7A1.016,1.016,0,0,0,70.352,1666.4Z"/><path class="a" d="M71.368,1662.49a1.015,1.015,0,1,0-2.031,0v.7a1.015,1.015,0,1,0,2.031,0Z"/><path class="a" d="M104.363,1656.228a3.047,3.047,0,1,0-3.046-3.046A3.05,3.05,0,0,0,104.363,1656.228Zm0-4.062a1.016,1.016,0,1,1-1.015,1.016A1.017,1.017,0,0,1,104.363,1652.166Z"/><path class="a" d="M70.785,1682.044a3.047,3.047,0,1,0,3.046,3.047A3.051,3.051,0,0,0,70.785,1682.044Zm0,4.062a1.016,1.016,0,1,1,1.015-1.015A1.017,1.017,0,0,1,70.785,1686.106Z"/><path class="a" d="M104.364,1695.235a1.016,1.016,0,1,0,.718.3A1.026,1.026,0,0,0,104.364,1695.235Z"/><path class="a" d="M82.462,1695.235a1.017,1.017,0,1,0,.718.3A1.024,1.024,0,0,0,82.462,1695.235Z"/><path class="a" d="M83.162,1654.226a1.016,1.016,0,1,0-.718-.3A1.022,1.022,0,0,0,83.162,1654.226Z"/><path class="a" d="M115.222,1665.409a1.014,1.014,0,1,0-.718.3A1.025,1.025,0,0,0,115.222,1665.409Z"/></g></svg>