<svg xmlns="http://www.w3.org/2000/svg" width="512.537" height="509.728" viewBox="0 0 512.537 509.728"><defs><style>.a{fill:none;stroke:#fff;stroke-miterlimit:10;stroke-width:0.959px;}.b{fill:#fff;}</style></defs><g transform="translate(-50.802 -2777.408)"><line class="a" y1="48.512" transform="translate(310.6 2860.281)"/><line class="a" y1="19.815" transform="translate(310.6 2978.484)"/><line class="a" x2="56.925" transform="translate(356.644 3043.235)"/><line class="a" y1="18.558" x2="18.559" transform="translate(394.741 2940.535)"/><line class="a" y1="26.219" x2="26.221" transform="translate(353.393 2974.221)"/><line class="a" x2="15.37" y2="13.681" transform="translate(506.561 3217.62)"/><line class="a" x2="30.335" y2="42.903" transform="translate(431.693 3214.529)"/><line class="a" x2="29.76" y2="26.482" transform="translate(437.549 3156.207)"/><line class="a" x2="17.529" y2="35.771" transform="translate(385.376 3195.838)"/><line class="a" x2="27.536" y2="24.505" transform="translate(410.013 3131.703)"/><line class="a" y1="30.147" x2="12.259" transform="translate(381.768 2838.052)"/><line class="a" y1="56.516" x2="22.979" transform="translate(327.563 2944.997)"/><line class="a" y1="39.07" x2="92.616" transform="translate(422.063 2957.141)"/><line class="a" y1="18.352" x2="51.078" transform="translate(502.768 2955.835)"/><line class="a" y1="63.356" x2="12.69" transform="translate(332.805 2869.021)"/><line class="a" x2="21.586" y2="4.323" transform="translate(484.681 3078.104)"/><line class="a" x2="72.657" y2="14.552" transform="translate(389.614 3059.062)"/><line class="a" y1="29.776" x2="44.694" transform="translate(431.74 2932.748)"/><line class="a" x2="9.385" y2="14.089" transform="translate(390.017 3162.438)"/><line class="a" x2="30.462" y2="45.718" transform="translate(341.361 3089.411)"/><line class="a" x2="13.476" y2="8.905" transform="translate(463.295 3144.122)"/><line class="a" x2="23.124" y2="15.279" transform="translate(381.271 3089.929)"/><line class="a" y1="10.246" x2="50.155" transform="translate(477.457 2998.9)"/><line class="a" y1="4.543" x2="22.233" transform="translate(396.494 3021.143)"/><line class="a" x2="12.384" y2="60.626" transform="translate(336.817 3171.561)"/><line class="a" y1="140.578" x2="14.046" transform="translate(318.574 2822.837)"/><line class="a" y1="25.845" x2="6.398" transform="translate(369.97 2777.523)"/><line class="a" y1="41.989" x2="10.394" transform="translate(347.813 2850.895)"/><line class="a" x2="47.397" y2="4.735" transform="translate(483.598 3060.522)"/><line class="a" x2="22.469" y2="2.246" transform="translate(419.954 3054.16)"/><line class="a" x2="24.638" y2="10.751" transform="translate(530.176 3139.04)"/><line class="a" y1="23.219" x2="28.374" transform="translate(467.629 2891.515)"/><line class="a" x2="12.729" y2="6.469" transform="translate(550.393 3165.064)"/><line class="a" x2="16.459" y2="8.362" transform="translate(494.24 3136.533)"/><line class="a" x2="20.258" y2="10.296" transform="translate(452.28 3115.212)"/><line class="a" x2="42.45" y2="11.553" transform="translate(463.938 3084.95)"/><line class="a" y1="17.844" x2="21.806" transform="translate(411.776 2942.596)"/><line class="a" x2="24.612" y2="30.08" transform="translate(426.259 3184.574)"/><line class="a" x2="17.654" y2="18.138" transform="translate(420.338 3155.956)"/><line class="a" x2="23.273" y2="28.441" transform="translate(386.957 3136.543)"/><line class="a" x2="23.298" y2="23.577" transform="translate(372.048 3105.418)"/><line class="a" x2="16.611" y2="20.302" transform="translate(349.355 3090.592)"/><line class="a" y1="17.275" x2="9.121" transform="translate(404.892 2847.363)"/><line class="a" y1="24.556" x2="12.966" transform="translate(364.222 2917.113)"/><line class="a" x2="11.13" y2="36.019" transform="translate(364.847 3218.844)"/><line class="a" x2="14.361" y2="46.492" transform="translate(334.882 3121.837)"/><line class="a" y1="64.162" x2="19.656" transform="translate(329.324 2917.95)"/><line class="a" y1="7.832" x2="14.749" transform="translate(491.478 2939.359)"/><line class="a" y1="7.189" x2="13.542" transform="translate(468.36 2952.277)"/><line class="a" y1="11.863" x2="22.339" transform="translate(372.098 2998.717)"/><line class="a" x2="8.404" y2="15.828" transform="translate(406.069 3223.039)"/><line class="a" x2="31.728" y2="59.756" transform="translate(349.736 3116.941)"/><line class="a" y1="10.512" x2="11.779" transform="translate(464.084 2895.763)"/><line class="a" y1="12.321" x2="9.876" transform="translate(439.239 2870.393)"/><line class="a" y1="10.318" x2="11.563" transform="translate(440.299 2917.18)"/><line class="a" y1="57.156" x2="46.548" transform="translate(356.436 2929.796)"/><line class="a" y1="13.954" x2="9.782" transform="translate(477.133 2801.228)"/><line class="a" y1="12.807" x2="11.246" transform="translate(500.977 2821.868)"/><line class="a" y1="30.23" x2="21.192" transform="translate(455.941 2815.182)"/><line class="a" y1="32.248" x2="22.604" transform="translate(397.134 2897.056)"/><line class="a" x2="54.65" y2="44.504" transform="translate(427.695 3138.6)"/><line class="a" x2="31.055" y2="25.291" transform="translate(358.461 3082.215)"/><line class="a" y1="2.005" x2="19.607" transform="translate(511.339 3020.695)"/><line class="a" y1="2.857" x2="27.931" transform="translate(445.743 3026.554)"/><line class="a" x1="1.826" y1="17.858" transform="translate(289.986 2841.721)"/><line class="a" x1="2.31" y1="22.593" transform="translate(300.689 2946.35)"/><line class="a" x1="15.625" y1="45.927" transform="translate(250.326 2862.238)"/><line class="a" x1="6.382" y1="18.759" transform="translate(288.394 2974.144)"/><line class="a" x1="53.891" y2="18.332" transform="translate(211.762 3050.273)"/><line class="a" x1="23.544" y1="11.595" transform="translate(178.944 2971.289)"/><line class="a" x1="33.266" y1="16.379" transform="translate(221.685 2992.333)"/><line class="a" x1="10.147" y2="17.902" transform="translate(169.737 3263.648)"/><line class="a" x1="14.9" y2="50.392" transform="translate(234.866 3236.608)"/><line class="a" x1="19.647" y2="34.659" transform="translate(205.796 3183.281)"/><line class="a" x1="5.074" y2="39.513" transform="translate(282.522 3204)"/><line class="a" x1="18.179" y2="32.065" transform="translate(225.443 3151.216)"/><line class="a" x1="21.02" y1="24.254" transform="translate(125.323 2823.22)"/><line class="a" x1="39.955" y1="46.106" transform="translate(239.795 2955.304)"/><line class="a" x1="100.263" y1="7.161" transform="translate(88.314 3019.661)"/><line class="a" x1="54.269" y1="0.924" transform="translate(50.81 3031.037)"/><line class="a" x1="32.417" y1="55.894" transform="translate(220.106 2881.75)"/><line class="a" x1="19.041" y2="11.043" transform="translate(136.625 3124.519)"/><line class="a" x1="64.1" y2="37.177" transform="translate(175.437 3075.873)"/><line class="a" x1="51.901" y1="13.797" transform="translate(116.665 2984.25)"/><line class="a" x1="4.347" y2="16.365" transform="translate(268.099 3173.871)"/><line class="a" x1="14.114" y2="53.094" transform="translate(280.878 3089.068)"/><line class="a" x1="9.892" y2="12.77" transform="translate(187.285 3180.133)"/><line class="a" x1="16.974" y2="21.913" transform="translate(240.404 3102.409)"/><line class="a" x1="50.782" y2="6.449" transform="translate(89.517 3056.908)"/><line class="a" x1="22.509" y2="2.861" transform="translate(199.764 3046.492)"/><line class="a" x2="7.797" y2="61.387" transform="translate(325.753 3165.376)"/><line class="a" x1="58.571" y1="128.565" transform="translate(217.42 2833.881)"/><line class="a" x1="23.363" y1="36.407" transform="translate(202.232 2868.682)"/><line class="a" x1="43.349" y2="19.749" transform="translate(107.681 3107.523)"/><line class="a" x1="20.55" y2="9.361" transform="translate(188.685 3081.006)"/><line class="a" x1="19.864" y2="18.115" transform="translate(112.358 3196.86)"/><line class="a" x1="34.339" y1="12.845" transform="translate(84.859 2951.515)"/><line class="a" x1="9.968" y2="10.224" transform="translate(111.493 3228.008)"/><line class="a" x1="12.889" y2="13.22" transform="translate(152.545 3182.909)"/><line class="a" x1="15.863" y2="16.271" transform="translate(182.429 3149.213)"/><line class="a" x1="36.47" y2="24.605" transform="translate(141.041 3124.322)"/><line class="a" x1="26.396" y1="9.872" transform="translate(160.404 2979.773)"/><line class="a" x1="13.617" y2="36.403" transform="translate(231.648 3206.502)"/><line class="a" x1="10.872" y2="22.855" transform="translate(230.784 3177.505)"/><line class="a" x1="12.875" y2="34.419" transform="translate(254.131 3148.375)"/><line class="a" x1="14.464" y2="29.821" transform="translate(256.63 3114.108)"/><line class="a" x1="9.191" y2="24.569" transform="translate(278.618 3092.761)"/><line class="a" x1="14.197" y1="13.418" transform="translate(148.264 2883.311)"/><line class="a" x1="20.184" y1="19.071" transform="translate(205.589 2937.486)"/><line class="a" x2="1.064" y2="37.689" transform="translate(314.44 3219.167)"/><line class="a" x2="1.377" y2="48.638" transform="translate(311.571 3117.681)"/><line class="a" x1="39.272" y1="54.415" transform="translate(232.563 2929.194)"/><line class="a" x1="16.485" y1="2.663" transform="translate(90.589 3000.104)"/><line class="a" x1="15.132" y1="2.444" transform="translate(117.779 3004.498)"/><line class="a" x1="24.969" y1="4.036" transform="translate(215.538 3020.298)"/><line class="a" x1="2.862" y2="17.687" transform="translate(273.906 3236.416)"/><line class="a" x1="10.794" y2="66.791" transform="translate(285.136 3117.829)"/><line class="a" x1="14.537" y1="6.157" transform="translate(105.294 2949.052)"/><line class="a" x1="13.316" y1="8.483" transform="translate(122.448 2916.42)"/><line class="a" x1="14.271" y1="6.045" transform="translate(134.912 2961.599)"/><line class="a" x1="62.473" y1="39.12" transform="translate(185.251 2957.802)"/><line class="a" x1="31.785" y1="23.251" transform="translate(158.845 2932.2)"/><line class="a" x1="37.405" y2="59.738" transform="translate(191.694 3163.437)"/><line class="a" x1="21.255" y2="33.945" transform="translate(255.233 3087.762)"/><line class="a" x1="19.206" y2="4.415" transform="translate(93.381 3080.652)"/><line class="a" x1="27.365" y2="6.288" transform="translate(149.485 3065.88)"/><line class="a" x1="4.025" y1="17.496" transform="translate(263.865 2838.028)"/><line class="a" x1="5.087" y1="22.134" transform="translate(287.428 2940.53)"/><path class="b" d="M190.794,2900.32l2.722,3.646,4.307-1.46-2.626,3.714,2.721,3.646-4.344-1.351-2.628,3.715-.056-4.549-4.345-1.35,4.308-1.462Z"/><path class="b" d="M293.34,3266.645l2.721,3.644,4.307-1.46-2.626,3.714,2.721,3.647-4.345-1.35-2.628,3.714-.056-4.548-4.345-1.35,4.308-1.462Z"/><path class="b" d="M438.314,2900.376l.619,4.508,4.476.8-4.1,1.98.619,4.507-3.149-3.284-4.1,1.98,2.151-4.008-3.149-3.283,4.478.8Z"/><path class="b" d="M169.333,3083.51l.619,4.508,4.476.807-4.1,1.979.618,4.505-3.149-3.281-4.1,1.977,2.152-4.008-3.15-3.283,4.478.807Z"/><path class="b" d="M455.511,3094.992l3.871,2.387,3.468-2.943-1.074,4.42,3.871,2.387-4.537.343-1.077,4.42-1.726-4.205-4.536.341,3.468-2.943Z"/><path class="b" d="M119.487,2936.515l4.547.152,1.55-4.276,1.261,4.37,4.546.152-3.769,2.55,1.259,4.372-3.587-2.8-3.769,2.549,1.55-4.276Z"/><path class="b" d="M364.994,3194.186l.37,4.536,4.427,1.045-4.2,1.757.369,4.536L363,3202.607l-4.2,1.752,2.366-3.883-2.966-3.452,4.427,1.05Z"/><path class="b" d="M408.608,2976.176l.371,4.536,4.427,1.048-4.2,1.754.369,4.534-2.964-3.452-4.2,1.754,2.366-3.885-2.966-3.45,4.426,1.048Z"/><path class="b" d="M314.44,3013.354l7.761,23.887h25.117L327,3052l7.76,23.887-20.318-14.765-20.319,14.765L301.882,3052l-20.319-14.763h25.116Z"/></g></svg>