<svg xmlns="http://www.w3.org/2000/svg" width="52" height="52.009" viewBox="0 0 52 52.009"><defs><style>.a{fill:#fff;}</style></defs><g transform="translate(-62.47 -3595.905)"><path class="a" d="M88.388,3608.09a7.238,7.238,0,1,1-7.235,7.24,7.239,7.239,0,0,1,7.235-7.24"/><path class="a" d="M94.3,3621.934a8.849,8.849,0,0,1-11.822,0A13.7,13.7,0,0,0,75.337,3634h26.106A13.7,13.7,0,0,0,94.3,3621.934Z"/><path class="a" d="M106.855,3603.522A26,26,0,0,0,71,3602.647a.762.762,0,0,0,1.024,1.128,24.471,24.471,0,1,1-2.276,2.36.761.761,0,1,0-1.164-.982,26,26,0,1,0,38.267-1.631Zm0,0"/></g></svg>