<svg xmlns="http://www.w3.org/2000/svg" width="52" height="52" viewBox="0 0 52 52"><defs><style>.a,.c{fill:none;}.a{stroke:#000;stroke-width:1.5px;}.b{stroke:none;}</style></defs><g transform="translate(-66 -1648)"><g transform="translate(-2927.586 -329.465)"><path d="M3030.043,2190.746a1.371,1.371,0,0,1-1.371-1.371c0-4.363,0-8.978,0-13.282v-.4h6.307l-3.209,5.694,1.382-.239c.287-.05.576-.091.859-.156a.255.255,0,0,1,.324.15c.282.477.578.945.87,1.416.049.08.106.155.182.266l3.976-7.05.075.02v.3q0,7.137,0,14.274c0,.126.014.251.021.377Z" transform="translate(-20.334 -172.375)"/><path d="M3179.225,2190.636c0-.106-.013-.213-.013-.32q0-7.119,0-14.238v-.311l.06-.015,3.937,7c.363-.6.705-1.148,1.033-1.706a.278.278,0,0,1,.345-.163c.648.123,1.3.223,1.951.331.066.011.132.018.268.036l-3.206-5.673h6.31v13.756a1.307,1.307,0,0,1-1.307,1.307Z" transform="translate(-158.932 -172.266)"/><path d="M3008.078,1996.083h4.873l.016-.054c-.142-.088-.284-.173-.423-.263a4.174,4.174,0,0,1-1.952-2.445,3.9,3.9,0,0,1,3.111-4.812,4.145,4.145,0,0,1,2.915.7,6.228,6.228,0,0,1,2.738,3.332c.065.2.152.4.23.6a1.014,1.014,0,0,0,.071.107c.065-.119.114-.219.172-.312.538-.876,1.017-1.8,1.63-2.616a4.413,4.413,0,0,1,3.615-1.83,3.257,3.257,0,0,1,3.445,2.693,3.729,3.729,0,0,1-1.547,4.037c-.376.3-.8.551-1.232.849h5.476a1.492,1.492,0,0,1,1.493,1.492v4.508h-12.29v-5.941h-1.507v5.946h-12.327v-4.5A1.493,1.493,0,0,1,3008.078,1996.083Zm10.48-.479a13.224,13.224,0,0,0-2.271-4.284,2.821,2.821,0,0,0-1.413-.883,1.855,1.855,0,0,0-2.234.771,2.034,2.034,0,0,0,.376,2.6,6.654,6.654,0,0,0,1.175.745A13.674,13.674,0,0,0,3018.559,1995.6Zm2.151.026.08.093c.421-.1.846-.187,1.265-.3a11.154,11.154,0,0,0,3.476-1.44,2.827,2.827,0,0,0,1.216-1.717,1.514,1.514,0,0,0-1.069-1.864,2.568,2.568,0,0,0-2.6.91c-.6.847-1.157,1.726-1.667,2.628A13.789,13.789,0,0,0,3020.71,1995.63Z" transform="translate(0 0)"/></g><g transform="translate(-1 -1014)"><g class="a" transform="translate(67 2662)"><circle class="b" cx="26" cy="26" r="26"/><circle class="c" cx="26" cy="26" r="25.25"/></g></g></g></svg>