<svg xmlns="http://www.w3.org/2000/svg" viewBox="0 0 262.34 302.33">
  <defs>
    <style>.cls-1{fill:#0179c7;}.cls-2{fill:#fff;}</style>
  </defs>
  <title>iconeUmidade_2</title>
  <g id="Camada_2">
    <g id="Camada_1-2">
      <path class="cls-1"
            d="M106.27,0S29.35,114,12.9,156.51C7.5,170.46-3.28,192.84,1,215.16c4,21.09,11.39,46.72,47.73,71.39,12,8.17,34,15.78,56,15.78,29,0,51.57-10.72,59.46-18.07,21.44-20,43.28-108.95,43.28-108.95s-3.31-10.73-8.49-19C174.8,117.72,106.27,0,106.27,0Z"/>
      <ellipse class="cls-1" cx="195.25" cy="233.29" rx="67.09" ry="62.83"/>
      <circle class="cls-2" cx="195.25" cy="233.29" r="52.3"/>
      <path class="cls-1"
            d="M187.68,219c0,14-8,21-17.25,21-9,0-16.7-6.65-16.81-20.06s7.85-20.78,17.36-20.78C181.05,199.11,187.68,206.28,187.68,219Zm-26.32.61c-.22,8.5,3.21,14.95,9.29,14.95,6.42,0,9.29-6.35,9.29-15.15,0-8.09-2.54-14.84-9.29-14.84C164.57,204.54,161.36,211.19,161.36,219.58Zm8.41,48.32L212,199.11h6.19L176,267.9Zm64.68-21.4c0,14-8,21-17.13,21-9,0-16.7-6.66-16.81-20s7.85-20.88,17.36-20.88C227.93,226.65,234.45,233.81,234.45,246.5Zm-26.31.62c-.11,8.49,3.43,14.94,9.4,14.94,6.41,0,9.29-6.34,9.29-15.15,0-8.08-2.55-14.84-9.29-14.84C211.46,232.07,208.14,238.73,208.14,247.12Z"/>
    </g>
  </g>
</svg>
