<svg id="Camada_1" data-name="Camada 1" xmlns="http://www.w3.org/2000/svg" viewBox="0 0 27.13 27.13">
  <defs>
    <style>.cls-1{fill:#fff;}.cls-2{fill:none;stroke:#fff;stroke-miterlimit:10;stroke-width:0.75px;}</style>
  </defs>
  <title>IconeSKAInterligadaSection</title>
  <path class="cls-1" d="M10.12,13.45A2.08,2.08,0,1,1,8,15.53H8a2.08,2.08,0,0,1,2.08-2.08"
        transform="translate(-1.44 -0.34)"/>
  <path class="cls-1" d="M15,13.45a2.08,2.08,0,1,1-2.08,2.08h0A2.08,2.08,0,0,1,15,13.45"
        transform="translate(-1.44 -0.34)"/>
  <path class="cls-1" d="M16.72,17.52a2.54,2.54,0,0,1-3.4,0A4,4,0,0,0,11.27,21h7.5A3.92,3.92,0,0,0,16.72,17.52Z"
        transform="translate(-1.44 -0.34)"/>
  <path class="cls-1" d="M19.89,13.45a2.08,2.08,0,1,1-2.08,2.08h0a2.08,2.08,0,0,1,2.08-2.08"
        transform="translate(-1.44 -0.34)"/>
  <path class="cls-1"
        d="M9.76,12.74l.11-.15c.16-.21.31-.42.48-.63.39-.51.51-.72.91-1.19s.68-.38,2.36-.38c.46,0,.55.18.67.54.25.73.44,1.36.64,2,.39-1,.48-1.26.81-2.09a.5.5,0,0,1,.57-.4h1.75a.63.63,0,0,1,.67.33c.44.63.92,1.24,1.48,2,0-.74,0-1.32,0-1.89,0-.32.08-.43.41-.43h1.46a1.13,1.13,0,0,0,1.19-1.08v-.1c0-1.34,0-1.31,0-2.66a1.12,1.12,0,0,0-1.05-1.17h-.14L8,5.41a1.11,1.11,0,0,0-1.18,1,.33.33,0,0,0,0,.14c0,1.35,0,1.32,0,2.67a1.11,1.11,0,0,0,1.08,1.17H8l1.44,0c.28,0,.37.09.36.37C9.75,11.37,9.76,12.15,9.76,12.74Z"
        transform="translate(-1.44 -0.34)"/>
  <path class="cls-1"
        d="M12.1,17.69l-.28-.17a2.54,2.54,0,0,1-3.4,0,3.94,3.94,0,0,0-2,3.47h4.32A4.48,4.48,0,0,1,12.1,17.69Z"
        transform="translate(-1.44 -0.34)"/>
  <path class="cls-1"
        d="M19.36,21h4.28a3.94,3.94,0,0,0-2.05-3.47,2.54,2.54,0,0,1-3.4,0,2.26,2.26,0,0,0-.26.16A4.53,4.53,0,0,1,19.36,21Z"
        transform="translate(-1.44 -0.34)"/>
  <circle class="cls-2" cx="13.56" cy="13.56" r="13.19"/>
</svg>
