<svg xmlns="http://www.w3.org/2000/svg" viewBox="0 0 93 93.44">
  <defs>
    <style>.cls-1{fill:#008d6b;}</style>
  </defs>
  <title>iconeEventos</title>
  <g id="Camada_2" data-name="Camada 2">
    <g id="Camada_1-2" data-name="Camada 1">
      <g id="Grupo_1" data-name="Grupo 1">
        <path id="Caminho_1" data-name="Caminho 1" class="cls-1"
              d="M12,15.16V3.21a3,3,0,1,1,6,0V15.1a3,3,0,1,1-6,.06Zm49.09,2.28A2.91,2.91,0,0,0,64,14.53h0V3.05a3,3,0,0,0-6-.14V14.53a2.9,2.9,0,0,0,2.9,2.91h.19ZM93,70.19A23.25,23.25,0,1,1,69.75,46.94h0A23.25,23.25,0,0,1,93,70.19Zm-5.81,0A17.44,17.44,0,1,0,69.75,87.62h0A17.45,17.45,0,0,0,87.19,70.19ZM23,35.44H11v12H23Zm-12,29H23v-12H11Zm18-17H41v-12H29Zm0,17H41v-12H29Zm-23,5v-40H70v12h6V18.82a6.43,6.43,0,0,0-6.49-6.38H67v2.69a6,6,0,0,1-12,.21v-2.9H21v2.69a6,6,0,0,1-12,.21v-2.9H6.35A6.37,6.37,0,0,0,0,18.83H0V70a6.38,6.38,0,0,0,6.35,6.4H41v-6H6.3a1.23,1.23,0,0,1-.48-1Zm52-22v-12H46v12Zm21,23H70V61.49a3,3,0,1,0-6-.05v12a3,3,0,0,0,3,3H79a3,3,0,1,0,0-6Z"/>
      </g>
    </g>
  </g>
</svg>
