<svg xmlns="http://www.w3.org/2000/svg" viewBox="0 0 227.22 227.22">
  <defs>
    <style>.cls-1{fill:none;stroke:#000;stroke-width:6px;}</style>
  </defs>
  <title>iconeAniversarioSKAPreto</title>
  <g id="Camada_2" data-name="Camada 2">
    <g id="svg8">
      <g id="layer1">
        <g id="g4643">
          <path id="path71"
                d="M114.78,68a10.83,10.83,0,0,0,7.83-14.26,76.41,76.41,0,0,0-7.66-14,17.07,17.07,0,0,0-1.69-1.92h-1.57c-.82,1.05-1.82,2.05-2.56,3.18a53,53,0,0,0-7,13.61,10.74,10.74,0,0,0,7.42,13.25A10.61,10.61,0,0,0,114.78,68Z"/>
          <path id="path73"
                d="M177.71,111.34A10.71,10.71,0,0,0,168.66,101a47,47,0,0,0-5.57,0h-5V80c0-2.22-.65-2.87-2.82-2.87H143.52c-2.08,0-2.78.7-2.78,2.78v21H121.17V75.59c0-2.39-.69-3-3.08-3h-11.4c-2.26,0-3,.7-3,3v25.14H84.21V79.59c0-1.87-.78-2.65-2.7-2.65H69.86c-2.52,0-3.13.61-3.13,3.09v20.79H58a10.82,10.82,0,0,0-10.79,10.86,1.77,1.77,0,0,0,0,.23v59c41.79,0,88.8-.39,130.46-.39V111.34Zm-19.36,42L156,147.52H137l-2.74,5.83h-8.7V153a32.72,32.72,0,0,0-3.56-4.35c-1.27-1.26-2.48-2.61-3.74-3.87a65,65,0,0,0-6.79-5.61l-.35-.26-7.3,5.95v8.7h-9.7V130.26c0-.48,0-.53-.56-.79A34.15,34.15,0,0,0,90,128.13,35.76,35.76,0,0,0,85.43,127a49.2,49.2,0,0,0-12.09-1.21,19.29,19.29,0,0,0-3.22.3,6.07,6.07,0,0,0-2.18.78,1.4,1.4,0,0,0-.31,2,1.34,1.34,0,0,0,.31.32,3.86,3.86,0,0,0,1.7.6A80.6,80.6,0,0,1,84.12,133a10.67,10.67,0,0,1,7.79,7.83,8.39,8.39,0,0,1-1.18,5.74,10.46,10.46,0,0,1-1.87,2.56,15.43,15.43,0,0,1-8.7,3.83,44.49,44.49,0,0,1-7.48.48,55.21,55.21,0,0,1-8.69-.91,48.55,48.55,0,0,1-8.7-2.4h-.52v-10a41.66,41.66,0,0,0,4.78,2.13c6.09,2.35,16.66,3.83,19.66,1.13a1.52,1.52,0,0,0,.3-1.78c-.35-.65-1.13-1-2.82-1.35A113.46,113.46,0,0,1,62.12,137a10.81,10.81,0,0,1-5.31-3A6.85,6.85,0,0,1,55,129.56a7.1,7.1,0,0,1,.95-3.48,7.94,7.94,0,0,1,2.83-3.35,20.68,20.68,0,0,1,5.35-2.43,40.13,40.13,0,0,1,6.35-1.18,42.37,42.37,0,0,1,4.65-.3,51,51,0,0,1,8.13.35c3,.35,5.92.74,8.7,1.35a70.43,70.43,0,0,1,9,2.56c2.09.74,2.61,1.13,2.74,1.31h0v7.69l15.92-13h15.13l-15.83,13c-.22.22-.22.26,0,.48s2,1.52,2.87,2.22,2,1.61,2.87,2.43,2.57,2.44,4,4l.26.26L140.05,119h12.48l17,34.31Z"/>
          <path id="path75" d="M140.22,140.35h12.31c-2.18-4.74-3.87-8.7-6.18-13.57Z"/>
          <path id="path77"
                d="M149.4,72.64a20.34,20.34,0,0,0,2.78-.44,10.47,10.47,0,0,0,8.13-12,51.36,51.36,0,0,0-9-17.4,2.05,2.05,0,0,0-2.85-.5,2,2,0,0,0-.5.5,61.15,61.15,0,0,0-8.7,15.61A10.75,10.75,0,0,0,149.4,72.64Z"/>
          <path id="path79"
                d="M75.42,72.55A10.71,10.71,0,0,0,86,59.2,59.65,59.65,0,0,0,77.25,43a2.13,2.13,0,0,0-3-.61,2.21,2.21,0,0,0-.61.61A60.91,60.91,0,0,0,65,58.59a10.61,10.61,0,0,0,10.43,14Z"/>
          <circle id="path127" class="cls-1" cx="113.61" cy="113.61" r="110.61"/>
        </g>
      </g>
    </g>
  </g>
</svg>
