<svg xmlns="http://www.w3.org/2000/svg" width="52" height="52" viewBox="0 0 52 52"><defs><style>.a,.d{fill:none;}.a{stroke:#fff;stroke-width:1.5px;}.b{fill:#fff;}.c{stroke:none;}</style></defs><g transform="translate(-62 -3596)"><g class="a" transform="translate(62 3596)"><circle class="c" cx="26" cy="26" r="26"/><circle class="d" cx="26" cy="26" r="25.25"/></g><g transform="translate(73.657 3607.091)"><g transform="translate(0 0)"><g transform="translate(0)"><path class="b" d="M88.955,3608.09a7.806,7.806,0,1,1-7.8,7.807,7.806,7.806,0,0,1,7.8-7.807" transform="translate(-74.881 -3608.09)"/><path class="b" d="M95.787,3621.934a9.542,9.542,0,0,1-12.749,0,14.774,14.774,0,0,0-7.7,13.011h28.152A14.772,14.772,0,0,0,95.787,3621.934Z" transform="translate(-75.337 -3607.005)"/></g></g></g></g></svg>