<svg id="Camada_1" data-name="Camada 1" xmlns="http://www.w3.org/2000/svg" viewBox="0 0 42.31 42.31">
  <defs>
    <style>.cls-1{fill:none;stroke:#000;stroke-miterlimit:10;}</style>
  </defs>
  <title>iconeMinhaHistoriaPreto</title>
  <path
    d="M31,15.09H21A11.29,11.29,0,0,0,9.78,26.34h0A11.29,11.29,0,0,0,21,37.64h6.86l.07.07,4.73,4.74a.64.64,0,0,0,.89,0h0a.63.63,0,0,0,.2-.46V37.28a11.28,11.28,0,0,0,8.45-10.9h0A11.28,11.28,0,0,0,31,15.09ZM18.84,30.2l-2.52-1.32L13.81,30.2l.48-2.8-2-2,2.77-.4,1.26-2.55L17.58,25l2.81.41-2,2Zm9.72,0L26,28.88,23.53,30.2,24,27.4l-2-2,2.79-.4L26,22.46,27.3,25l2.81.41-2,2Zm9.24-2.8.48,2.8-2.52-1.32L33.25,30.2l.48-2.8-2-2,2.78-.4,1.25-2.55L37,25l2.81.41Z"
    transform="translate(-4.9 -5.78)"/>
  <circle class="cls-1" cx="21.15" cy="21.15" r="20.65"/>
</svg>
