<?xml version="1.0" encoding="UTF-8" standalone="no"?>
<!-- Created with Inkscape (http://www.inkscape.org/) -->

<svg
  xmlns:dc="http://purl.org/dc/elements/1.1/"
  xmlns:cc="http://creativecommons.org/ns#"
  xmlns:rdf="http://www.w3.org/1999/02/22-rdf-syntax-ns#"
  xmlns:sodipodi="http://sodipodi.sourceforge.net/DTD/sodipodi-0.dtd"
  xmlns:inkscape="http://www.inkscape.org/namespaces/inkscape"
  xmlns="http://www.w3.org/2000/svg"
  width="210mm"
  height="297mm"
  viewBox="0 0 210 297"
  version="1.1"
  id="svg8"
  inkscape:version="0.92.3 (2405546, 2018-03-11)"
  sodipodi:docname="iconeAniversarioSKAPreto.svg">
  <defs
    id="defs2">
    <style
      id="style29">.cls-1,.cls-2{fill:none;}.cls-2{stroke:#fff;stroke-width:1.5px;}.cls-3{fill:#fff;}
    </style>
    <style
      id="style65">.cls-1{fill:#fff;}.cls-2,.cls-3{fill:none;}.cls-3{stroke:#fff;stroke-width:1.5px;}
    </style>
  </defs>
  <sodipodi:namedview
    id="base"
    pagecolor="#ffffff"
    bordercolor="#666666"
    borderopacity="1.0"
    inkscape:pageopacity="0.0"
    inkscape:pageshadow="2"
    inkscape:zoom="0.175"
    inkscape:cx="-1422.843"
    inkscape:cy="844.36688"
    inkscape:document-units="mm"
    inkscape:current-layer="layer1"
    showgrid="false"
    inkscape:window-width="1920"
    inkscape:window-height="1017"
    inkscape:window-x="-8"
    inkscape:window-y="-8"
    inkscape:window-maximized="1"/>
  <metadata
    id="metadata5">
    <rdf:RDF>
      <cc:Work
        rdf:about="">
        <dc:format>image/svg+xml</dc:format>
        <dc:type
          rdf:resource="http://purl.org/dc/dcmitype/StillImage"/>
        <dc:title></dc:title>
      </cc:Work>
    </rdf:RDF>
  </metadata>
  <g
    inkscape:label="Camada 1"
    inkscape:groupmode="layer"
    id="layer1">
    <g
      id="g4643"
      transform="translate(71.059524,13.607143)">
      <path
        id="path71"
        d="m 27.13913,101.29832 a 3.8199429,3.8199429 0 0 0 2.761404,-5.031889 27.031082,27.031082 0 0 0 -2.70004,-4.939846 6.2745246,6.2745246 0 0 0 -0.598304,-0.67501 h -0.552281 c -0.291481,0.368187 -0.644328,0.721033 -0.905127,1.119903 a 18.77755,18.77755 0 0 0 -2.485264,4.801775 3.7892606,3.7892606 0 0 0 4.479612,4.725067 z"
        class="cls-1"
        inkscape:connector-curvature="0"
        style="fill:#000000;stroke-width:1.53411365"/>
      <path
        id="path73"
        d="m 49.337754,116.59344 a 3.7739195,3.7739195 0 0 0 -3.190957,-3.63585 16.675815,16.675815 0 0 0 -1.963665,0 c -0.567622,0 -1.135244,0 -1.764231,0 v -0.55228 c 0,-2.28583 0,-4.60235 0,-6.85749 0,-0.7824 -0.230117,-1.01252 -0.997174,-1.01252 h -4.142106 c -0.736375,0 -0.981833,0.24546 -0.981833,0.98184 v 7.39442 h -6.903511 v -8.92854 c 0,-0.84376 -0.245458,-1.07388 -1.089221,-1.07388 h -4.019377 c -0.79774,0 -1.058539,0.24546 -1.058539,1.05854 v 8.86718 h -6.872829 v -7.44045 c 0,-0.65967 -0.27614,-0.93581 -0.95115,-0.93581 h -4.111425 c -0.889786,0 -1.104561,0.21477 -1.104561,1.08922 0,2.25514 0,4.51029 0,6.76544 v 0.56762 c -1.0585389,0 -2.0557127,0 -3.0682277,0 a 3.8199429,3.8199429 0 0 0 -3.8046017,3.91199 c 0,16.46104 0,20.80258 0,20.80258 14.7428314,0 31.3265994,-0.13807 46.0234084,-0.13807 0,0 0,-18.45539 0,-20.86394 z m -6.826806,14.81953 -0.843762,-2.05571 h -6.704077 l -0.966491,2.05571 H 30.92839 v -0.13807 c -0.398869,-0.56762 -0.81308,-1.08922 -1.257973,-1.53411 -0.444893,-0.44489 -0.874445,-0.92047 -1.319337,-1.36536 a 23.180456,23.180456 0 0 0 -2.393218,-1.97901 l -0.122729,-0.0921 -2.577311,2.10174 v 3.06823 h -3.421073 c 0,0 0,-6.55067 0,-8.20751 0,-0.16875 0,-0.18409 -0.199435,-0.27614 a 11.398464,11.398464 0 0 0 -1.242632,-0.47558 13.009283,13.009283 0 0 0 -1.610819,-0.39887 17.412189,17.412189 0 0 0 -4.264836,-0.42955 6.6273708,6.6273708 0 0 0 -1.135244,0.10739 2.0863945,2.0863945 0 0 0 -0.767057,0.27614 0.49091635,0.49091635 0 0 0 0,0.79774 1.3653611,1.3653611 0 0 0 0.598305,0.21478 28.36576,28.36576 0 0 1 5.108598,1.16592 3.7585783,3.7585783 0 0 1 2.746063,2.76141 2.9608392,2.9608392 0 0 1 -0.41421,2.02503 3.6972138,3.6972138 0 0 1 -0.659669,0.90512 5.4461033,5.4461033 0 0 1 -3.068227,1.35002 16.000805,16.000805 0 0 1 -2.638676,0.16876 19.053691,19.053691 0 0 1 -3.068227,-0.32217 17.074684,17.074684 0 0 1 -3.0682272,-0.84376 H 5.9683621 v -3.52846 a 14.574079,14.574079 0 0 0 1.687525,0.75171 c 2.147759,0.82843 5.8756549,1.35002 6.9341939,0.39887 a 0.53693976,0.53693976 0 0 0 0.107388,-0.62898 c -0.12273,-0.23012 -0.39887,-0.36819 -0.997174,-0.47558 a 40.316505,40.316505 0 0 1 -5.1392809,-1.18126 3.8046017,3.8046017 0 0 1 -1.8716186,-1.07388 2.4238995,2.4238995 0 0 1 -0.6443277,-1.53412 2.4699229,2.4699229 0 0 1 0.337505,-1.22729 2.7614045,2.7614045 0 0 1 0.9971738,-1.18127 7.2256751,7.2256751 0 0 1 1.8869598,-0.8591 14.037139,14.037139 0 0 1 2.2398056,-0.41421 14.742832,14.742832 0 0 1 1.641502,-0.10739 c 1.104562,0 2.362535,0 2.868792,0.12273 1.043197,0.12273 2.086395,0.2608 3.068227,0.47558 a 25.021393,25.021393 0 0 1 3.175616,0.90512 c 0.736374,0.2608 0.920468,0.39887 0.966491,0.46024 v 0 c 0,0.2608 0,2.53128 0,2.71538 l 5.614856,-4.60234 h 5.338715 l -5.584173,4.60234 c -0.07671,0.0767 -0.07671,0.092 0,0.16875 0.07671,0.0767 0.721033,0.53694 1.012515,0.7824 0.291481,0.24546 0.690351,0.56762 1.012515,0.8591 0.322164,0.29148 0.905127,0.85911 1.396043,1.39605 l 0.09205,0.092 3.942672,-7.93137 h 4.402906 l 5.998384,12.10416 z"
        class="cls-1"
        inkscape:connector-curvature="0"
        style="fill:#000000;stroke-width:1.53411365"/>
      <path
        id="path75"
        d="m 36.113694,126.82597 h 4.341542 c -0.767057,-1.67218 -1.365361,-3.06822 -2.178441,-4.78643 z"
        class="cls-1"
        inkscape:connector-curvature="0"
        style="fill:#000000;stroke-width:1.53411365"/>
      <path
        id="path77"
        d="m 39.350674,102.93982 a 7.2410162,7.2410162 0 0 0 0.981833,-0.15341 3.6972138,3.6972138 0 0 0 2.868792,-4.249491 18.056517,18.056517 0 0 0 -3.190956,-6.136455 0.72103339,0.72103339 0 0 0 -1.181268,0 21.600319,21.600319 0 0 0 -3.068227,5.507468 3.7892606,3.7892606 0 0 0 3.589826,5.031888 z"
        class="cls-1"
        inkscape:connector-curvature="0"
        style="fill:#000000;stroke-width:1.53411365"/>
      <path
        id="path79"
        d="m 13.255402,102.90914 a 3.7739195,3.7739195 0 0 0 3.712555,-4.709726 20.986674,20.986674 0 0 0 -3.068228,-5.706903 0.75171566,0.75171566 0 0 0 -1.257973,0 21.47759,21.47759 0 0 0 -3.0682269,5.492127 3.7432372,3.7432372 0 0 0 3.6818729,4.924502 z"
        class="cls-1"
        inkscape:connector-curvature="0"
        style="fill:#000000;stroke-width:1.53411365"/>
      <circle
        r="39.021351"
        cy="117.39488"
        cx="26.726952"
        id="path127"
        style="fill:none;fill-opacity:1;stroke:#000000;stroke-width:2.2650001;stroke-miterlimit:4;stroke-dasharray:none"/>
    </g>
  </g>
</svg>
