<svg xmlns="http://www.w3.org/2000/svg" width="30.792" height="27.811" viewBox="0 0 30.792 27.811"><defs><style>.a{fill:#fff;}</style></defs><g transform="translate(0 -0.007)"><path class="a" d="M1682.517,1037.212a3.708,3.708,0,1,1-3.706,3.709h0a3.709,3.709,0,0,1,3.706-3.709" transform="translate(-1675.832 -1022.835)"/><g transform="translate(8.738 14.377)"><g transform="translate(0 0)"><path class="a" d="M1741.54,1037.212a3.708,3.708,0,1,1-3.706,3.709h0a3.708,3.708,0,0,1,3.706-3.709" transform="translate(-1734.855 -1037.212)"/><path class="a" d="M1727.424,1086.248a4.534,4.534,0,0,1-6.056,0,7.018,7.018,0,0,0-3.658,6.181h13.373A7.018,7.018,0,0,0,1727.424,1086.248Z" transform="translate(-1717.71 -1078.988)"/></g></g><path class="a" d="M1800.167,1037.212a3.708,3.708,0,1,1-3.706,3.709h0a3.709,3.709,0,0,1,3.706-3.709" transform="translate(-1776.063 -1022.835)"/><g transform="translate(1.308)"><path class="a" d="M1672.25,953.226a2.642,2.642,0,0,1,.2-.274c.284-.378.564-.758.852-1.132.693-.9.919-1.271,1.623-2.122.686-.829,1.213-.664,4.216-.664.826,0,.974.312,1.2.966.447,1.3.781,2.41,1.142,3.494.686-1.738.851-2.258,1.431-3.735a.912.912,0,0,1,1.013-.713h3.132c.764,0,.876.159,1.184.591.8,1.12,1.644,2.209,2.65,3.55,0-1.324.028-2.353-.011-3.379-.022-.573.15-.762.744-.762,1.39,0,1.5,0,2.606,0a2.016,2.016,0,0,0,2.111-2.1c.034-2.4.034-2.345,0-4.749a1.974,1.974,0,0,0-2.111-2.078c-8.416-.014-16.772.022-25.188.036a1.974,1.974,0,0,0-2.106,2.083c-.034,2.4-.035,2.345,0,4.749a2.015,2.015,0,0,0,2.115,2.1c.478,0,1.83-.036,2.553-.036.5,0,.668.156.655.654C1672.23,950.767,1672.25,952.161,1672.25,953.226Z" transform="translate(-1667.522 -940.105)"/></g><path class="a" d="M1668.9,1086.554c-.163-.108-.33-.211-.5-.306a4.533,4.533,0,0,1-6.056,0,7.019,7.019,0,0,0-3.658,6.181h7.694A8.052,8.052,0,0,1,1668.9,1086.554Z" transform="translate(-1658.687 -1064.611)"/><path class="a" d="M1800.425,1092.429h7.635a7.018,7.018,0,0,0-3.659-6.181,4.534,4.534,0,0,1-6.056,0c-.161.088-.317.183-.469.282A8.052,8.052,0,0,1,1800.425,1092.429Z" transform="translate(-1777.268 -1064.611)"/></g></svg>