<svg id="Camada_1" data-name="Camada 1" xmlns="http://www.w3.org/2000/svg" viewBox="0 0 52 52">
  <defs>
    <style>.cls-1{fill:#fff;}</style>
  </defs>
  <title>icones novos menu</title>
  <path class="cls-1"
        d="M26.53,16.64a2.49,2.49,0,0,0,1.8-3.28,17.62,17.62,0,0,0-1.76-3.22,4.09,4.09,0,0,0-.39-.44h-.36c-.19.24-.42.47-.59.73a12.24,12.24,0,0,0-1.62,3.13A2.47,2.47,0,0,0,26.53,16.64Z"/>
  <path class="cls-1"
        d="M41,26.61a2.46,2.46,0,0,0-2.08-2.37,10.87,10.87,0,0,0-1.28,0c-.37,0-.74,0-1.15,0v-.36c0-1.49,0-3,0-4.47,0-.51-.15-.66-.65-.66H33.14c-.48,0-.64.16-.64.64v4.82H28V18.39c0-.55-.16-.7-.71-.7H24.67c-.52,0-.69.16-.69.69v5.78H19.5V19.31c0-.43-.18-.61-.62-.61H16.2c-.58,0-.72.14-.72.71,0,1.47,0,2.94,0,4.41v.37c-.69,0-1.34,0-2,0A2.49,2.49,0,0,0,11,26.74c0,10.73,0,13.56,0,13.56,9.61,0,20.42-.09,30-.09C41,40.21,41,28.18,41,26.61Zm-4.45,9.66L36,34.93H31.63L31,36.27H29L29,36.18c-.26-.37-.53-.71-.82-1s-.57-.6-.86-.89A15.11,15.11,0,0,0,25.76,33l-.08-.06L24,34.31v2H21.77s0-4.27,0-5.35c0-.11,0-.12-.13-.18a7.43,7.43,0,0,0-.81-.31,8.48,8.48,0,0,0-1.05-.26A11.35,11.35,0,0,0,17,29.93a4.32,4.32,0,0,0-.74.07,1.36,1.36,0,0,0-.5.18.32.32,0,0,0,0,.52.89.89,0,0,0,.39.14,18.49,18.49,0,0,1,3.33.76,2.45,2.45,0,0,1,1.79,1.8A1.93,1.93,0,0,1,21,34.72a2.41,2.41,0,0,1-.43.59,3.55,3.55,0,0,1-2,.88,10.43,10.43,0,0,1-1.72.11,12.42,12.42,0,0,1-2-.21,11.13,11.13,0,0,1-2-.55l-.12,0V33.24a9.5,9.5,0,0,0,1.1.49c1.4.54,3.83.88,4.52.26a.35.35,0,0,0,.07-.41c-.08-.15-.26-.24-.65-.31a26.28,26.28,0,0,1-3.35-.77,2.48,2.48,0,0,1-1.22-.7,1.58,1.58,0,0,1-.42-1A1.61,1.61,0,0,1,13,30a1.8,1.8,0,0,1,.65-.77,4.71,4.71,0,0,1,1.23-.56,9.15,9.15,0,0,1,1.46-.27,9.61,9.61,0,0,1,1.07-.07c.72,0,1.54,0,1.87.08.68.08,1.36.17,2,.31a16.31,16.31,0,0,1,2.07.59c.48.17.6.26.63.3l0,0c0,.17,0,1.65,0,1.77l3.66-3h3.48l-3.64,3c-.05.05-.05.06,0,.11s.47.35.66.51.45.37.66.56.59.56.91.91l.06.06,2.57-5.17h2.87l3.91,7.89Z"/>
  <path class="cls-1" d="M32.38,33.28h2.83c-.5-1.09-.89-2-1.42-3.12Z"/>
  <path class="cls-1"
        d="M34.49,17.71a4.72,4.72,0,0,0,.64-.1A2.41,2.41,0,0,0,37,14.84a11.77,11.77,0,0,0-2.08-4,.47.47,0,0,0-.77,0,14.08,14.08,0,0,0-2,3.59A2.47,2.47,0,0,0,34.49,17.71Z"/>
  <path class="cls-1"
        d="M17.48,17.69a2.46,2.46,0,0,0,2.42-3.07,13.68,13.68,0,0,0-2-3.72.49.49,0,0,0-.82,0,14,14,0,0,0-2,3.58A2.44,2.44,0,0,0,17.48,17.69Z"/>
</svg>
