<svg xmlns="http://www.w3.org/2000/svg" width="52" height="52" viewBox="0 0 52 52"><defs><style>.a,.d{fill:none;}.a{stroke:#fff;stroke-width:1.5px;}.b{fill:#fff;}.c{stroke:none;}</style></defs><g transform="translate(-67 -2662)"><g class="a" transform="translate(67 2662)"><circle class="c" cx="26" cy="26" r="26"/><circle class="d" cx="26" cy="26" r="25.25"/></g><g transform="translate(78.912 2673.091)"><path class="b" d="M2288.095,1222.322a3.578,3.578,0,0,1,.353.4,15.788,15.788,0,0,1,1.6,2.931,2.257,2.257,0,1,1-4.294.176,11.351,11.351,0,0,1,1.477-2.841,7.765,7.765,0,0,1,.537-.664Z" transform="translate(-2274.282 -1222.322)"/><path class="b" d="M2087.146,1369.123c0-1.471,0-2.942,0-4.413a.389.389,0,0,0-.2-.368,2.531,2.531,0,0,1-1.162-2.171q-.009-2.057,0-4.115a2.273,2.273,0,0,1,2.284-2.315c.585-.009,1.17,0,1.8,0v-.333q0-2,0-4.007c0-.522.132-.651.66-.651q1.218,0,2.437,0c.393,0,.559.164.56.558,0,1.462,0,2.924,0,4.409h4.075v-.3q0-2.477,0-4.955c0-.484.148-.632.627-.633h2.382c.5,0,.649.142.649.64q0,2.45,0,4.9v.344h4.08v-.272q0-2.057,0-4.115c0-.436.146-.581.583-.582q1.232,0,2.464,0c.456,0,.592.136.592.6q0,2.031,0,4.061c0,.1,0,.2,0,.328.365,0,.7-.006,1.043,0a9.348,9.348,0,0,1,1.16.05,2.228,2.228,0,0,1,1.89,2.152c.018,1.426.027,2.852,0,4.278a2.652,2.652,0,0,1-1.178,2.15.4.4,0,0,0-.164.268c-.01,1.543-.007,3.086-.005,4.63,0,.026-.01,1.033-.01,1.033h-24.572S2087.146,1369.2,2087.146,1369.123Zm12.292-12.467h-11.1c-.09,0-.18,0-.27,0a1.362,1.362,0,0,0-1.361,1.416c0,1.354,0,2.708,0,4.061a1.79,1.79,0,0,0,1.6,1.777,1.752,1.752,0,0,0,1.973-1.48c.081-.668.034-1.35.058-2.026a2.569,2.569,0,0,1,.1-.69,1.813,1.813,0,0,1,3.532.54c.013.875,0,1.751.008,2.626a2.537,2.537,0,0,0,.071.615,1.806,1.806,0,0,0,3.553-.446c.008-.92-.006-1.841.006-2.761a1.819,1.819,0,0,1,3.624-.211c.047.4.02.811.039,1.216a1.7,1.7,0,0,0,.97,1.518,1.732,1.732,0,0,0,1.848-.108,1.845,1.845,0,0,0,.8-1.677,5.284,5.284,0,0,1,.059-1.158,1.785,1.785,0,0,1,2.012-1.37,1.825,1.825,0,0,1,1.572,1.79c.007.623,0,1.245,0,1.868a1.733,1.733,0,0,0,.433,1.139,1.817,1.817,0,0,0,3.2-1.2c.007-1.282,0-2.563,0-3.845a1.414,1.414,0,0,0-1.6-1.592Z" transform="translate(-2085.786 -1342.571)"/><path class="b" d="M2423.766,1244.429a2.244,2.244,0,0,1-2.136-2.928,12.937,12.937,0,0,1,1.779-3.258.437.437,0,0,1,.706-.034,10.821,10.821,0,0,1,1.892,3.613,2.2,2.2,0,0,1-1.655,2.521C2424.161,1244.39,2423.961,1244.4,2423.766,1244.429Z" transform="translate(-2402.403 -1237.15)"/><path class="b" d="M2152.1,1244.42a2.227,2.227,0,0,1-2.152-2.9,12.778,12.778,0,0,1,1.78-3.258.442.442,0,0,1,.741-.016,12.181,12.181,0,0,1,1.825,3.385A2.227,2.227,0,0,1,2152.1,1244.42Z" transform="translate(-2146.19 -1237.158)"/></g></g></svg>