<svg xmlns="http://www.w3.org/2000/svg" width="214.079" height="79.181" viewBox="0 0 214.079 79.181">
  <g id="Grupo_163" data-name="Grupo 163" transform="translate(-2087.095 -172.321)">
    <text id="magnus" transform="translate(2232.174 246.502)" fill="#fff" font-size="20" font-family="SegoeUI-Semilight, Segoe UI" font-weight="300"><tspan x="0" y="0">magnus</tspan></text>
    <g id="Grupo_162" data-name="Grupo 162">
      <path id="Caminho_99" data-name="Caminho 99" d="M2194.043,232.613a21.376,21.376,0,0,0,12.025.612,14.208,14.208,0,0,0,3.661-1.429c3.477-1.89,3.948-2.795,3.559-7.008a27.861,27.861,0,0,1-7.764,3.09c-12.328,2.6-24.495-5.951-26.459-18.644-1.912-12.359,7.013-24.186,19.288-25.559a22.166,22.166,0,0,1,25.017,22.386c-.014,7.382-.107,14.764-.209,22.146-.076,5.462-5.3,11.646-11.351,13.554a18.82,18.82,0,0,1-5.93.737c-3.6-.039-7.211-.015-10.817-.008-.655,0-1.253.066-1.225-.922C2193.921,238.613,2193.717,235.648,2194.043,232.613Zm-5.477-26.982a12.572,12.572,0,1,0,12.7-12.6A12.665,12.665,0,0,0,2188.566,205.631Z" fill="#fff"/>
      <path id="Caminho_100" data-name="Caminho 100" d="M2253.711,209.762c-5.153,0-10.306.06-15.457-.034-1.675-.031-1.564.465-.986,1.681a12.987,12.987,0,0,0,20.679,3.844,3.242,3.242,0,0,1,2.549-1.021c2.46.065,4.926.094,7.384-.006,1.51-.061,1.778.291,1.06,1.652-4.335,8.22-11.053,12.816-20.4,12.64-9.269-.175-15.982-4.865-19.783-13.269a22.542,22.542,0,0,1,22.94-31.886c10.307,1.074,19,10.489,19.418,21.035.214,5.364.214,5.364-5.035,5.364Zm-4.963-7c3.719,0,7.438-.046,11.155.025,1.328.025,1.392-.385.98-1.486a13.026,13.026,0,0,0-24.31.023c-.426,1.155-.237,1.483,1.021,1.461C2241.311,202.716,2245.03,202.757,2248.748,202.757Z" fill="#fff"/>
      <path id="Caminho_101" data-name="Caminho 101" d="M2143.291,225.717a23.686,23.686,0,0,1-13.69,4.036c-11.551-.2-21.233-9.65-22.011-21.54-.744-11.382,7.626-22.018,18.731-23.8a22.679,22.679,0,0,1,26.664,21.28c.448,7.087.075,14.185.211,21.276.017.844-.285,1.076-1.087,1.062-2.288-.041-4.583-.1-6.867.016C2143.75,228.118,2142.75,227.943,2143.291,225.717Zm-13-6.188a12.865,12.865,0,1,0-12.8-12.9A12.836,12.836,0,0,0,2130.295,219.529Z" fill="#fff"/>
      <path id="Caminho_102" data-name="Caminho 102" d="M2275.355,193.938c0-6.64.043-13.28-.035-19.919-.017-1.39.406-1.738,1.72-1.664a40.266,40.266,0,0,0,5.833-.013c1.635-.148,1.881.5,1.82,1.919-.108,2.514.014,5.037-.053,7.553-.026.985.277,1.278,1.249,1.242,1.886-.071,3.778.015,5.665-.037.838-.023,1.221.13,1.2,1.1-.069,2.574-.077,5.153,0,7.726.033,1.065-.4,1.2-1.3,1.173-1.887-.057-3.778.029-5.665-.037-.92-.032-1.148.291-1.143,1.169.033,6.01-.03,12.021.035,18.03a6.509,6.509,0,0,0,6.865,6.588c1.737-.027,2.086.517,1.965,2.09-.144,1.878-.054,3.776-.024,5.664.012.735-.13,1.1-1,1.194-7.284.749-14.777-4.139-16.753-10.988a10.829,10.829,0,0,1-.429-3.045q.018-9.873.006-19.745Z" fill="#fff"/>
      <path id="Caminho_103" data-name="Caminho 103" d="M2087.121,193.883c0-6.7.026-13.4-.026-20.1-.008-1.118.282-1.469,1.417-1.424,2.23.09,4.467.07,6.7.006.963-.027,1.283.251,1.261,1.241-.062,2.8.02,5.613-.043,8.417-.023,1.018.205,1.423,1.313,1.365,1.828-.1,3.665.017,5.5-.044.9-.03,1.184.251,1.162,1.16-.058,2.462-.05,4.926,0,7.387.016.841-.284,1.088-1.089,1.07-1.889-.043-3.781.02-5.669-.028-.833-.021-1.217.134-1.21,1.1.043,6.128-.028,12.257.042,18.384a6.509,6.509,0,0,0,6.917,6.359c1.6-.021,2.033.427,1.925,1.966-.134,1.937-.043,3.892-.026,5.839.006.648-.093,1.064-.9,1.119-7.939.541-15.055-4.291-16.9-11.02a18.441,18.441,0,0,1-.369-5.1C2087.135,205.681,2087.121,199.782,2087.121,193.883Z" fill="#fff"/>
      <path id="Caminho_104" data-name="Caminho 104" d="M2157.058,213.443c0-3.833.113-7.669-.023-11.5-.345-9.772,7.3-16.946,16.192-18.224a19.738,19.738,0,0,1,5.128-.156c.752.088,1.087.31,1.069,1.147-.054,2.516-.044,5.034-.005,7.55.013.848-.207.993-1.082.909a9.172,9.172,0,0,0-10.362,9.411c0,7.95-.031,15.9.032,23.852.01,1.278-.3,1.665-1.6,1.611-2.626-.108-5.263-.1-7.891,0-1.26.048-1.5-.4-1.486-1.56C2157.1,222.138,2157.058,217.79,2157.058,213.443Z" fill="#fff"/>
    </g>
  </g>
</svg>
