<svg xmlns="http://www.w3.org/2000/svg" xmlns:xlink="http://www.w3.org/1999/xlink" width="228.079" height="87.998" viewBox="0 0 228.079 87.998"><defs><style>.a{fill:#fff;}.b{filter:url(#w);}.c{filter:url(#u);}.d{filter:url(#s);}.e{filter:url(#q);}.f{filter:url(#o);}.g{filter:url(#m);}.h{filter:url(#k);}.i{filter:url(#i);}.j{filter:url(#g);}.k{filter:url(#e);}.l{filter:url(#c);}.m{filter:url(#a);}</style><filter id="a" x="94.126" y="11.087" width="61.386" height="76.303" filterUnits="userSpaceOnUse"><feOffset input="SourceAlpha"/><feGaussianBlur stdDeviation="2.5" result="b"/><feFlood flood-opacity="0.502"/><feComposite operator="in" in2="b"/><feComposite in="SourceGraphic"/></filter><filter id="c" x="21.358" y="11.072" width="61.917" height="61.943" filterUnits="userSpaceOnUse"><feOffset input="SourceAlpha"/><feGaussianBlur stdDeviation="2.5" result="d"/><feFlood flood-opacity="0.502"/><feComposite operator="in" in2="d"/><feComposite in="SourceGraphic"/></filter><filter id="e" x="143.538" y="11.087" width="61.935" height="61.917" filterUnits="userSpaceOnUse"><feOffset input="SourceAlpha"/><feGaussianBlur stdDeviation="2.5" result="f"/><feFlood flood-opacity="0.502"/><feComposite operator="in" in2="f"/><feComposite in="SourceGraphic"/></filter><filter id="g" x="0" y="0" width="33.777" height="72.417" filterUnits="userSpaceOnUse"><feOffset input="SourceAlpha"/><feGaussianBlur stdDeviation="2.5" result="h"/><feFlood flood-opacity="0.502"/><feComposite operator="in" in2="h"/><feComposite in="SourceGraphic"/></filter><filter id="i" x="72.237" y="11.394" width="38.067" height="61.023" filterUnits="userSpaceOnUse"><feOffset input="SourceAlpha"/><feGaussianBlur stdDeviation="2.5" result="j"/><feFlood flood-opacity="0.502"/><feComposite operator="in" in2="j"/><feComposite in="SourceGraphic"/></filter><filter id="k" x="194.302" y="0" width="33.777" height="72.417" filterUnits="userSpaceOnUse"><feOffset input="SourceAlpha"/><feGaussianBlur stdDeviation="2.5" result="l"/><feFlood flood-opacity="0.502"/><feComposite operator="in" in2="l"/><feComposite in="SourceGraphic"/></filter><filter id="m" x="147.158" y="64.535" width="24.683" height="19.456" filterUnits="userSpaceOnUse"><feOffset input="SourceAlpha"/><feGaussianBlur stdDeviation="1.5" result="n"/><feFlood flood-opacity="0.502"/><feComposite operator="in" in2="n"/><feComposite in="SourceGraphic"/></filter><filter id="o" x="164.425" y="64.516" width="19.465" height="19.735" filterUnits="userSpaceOnUse"><feOffset input="SourceAlpha"/><feGaussianBlur stdDeviation="1.5" result="p"/><feFlood flood-opacity="0.502"/><feComposite operator="in" in2="p"/><feComposite in="SourceGraphic"/></filter><filter id="q" x="176.409" y="64.498" width="19.447" height="23.5" filterUnits="userSpaceOnUse"><feOffset input="SourceAlpha"/><feGaussianBlur stdDeviation="1.5" result="r"/><feFlood flood-opacity="0.502"/><feComposite operator="in" in2="r"/><feComposite in="SourceGraphic"/></filter><filter id="s" x="188.896" y="64.535" width="17.564" height="19.456" filterUnits="userSpaceOnUse"><feOffset input="SourceAlpha"/><feGaussianBlur stdDeviation="1.5" result="t"/><feFlood flood-opacity="0.502"/><feComposite operator="in" in2="t"/><feComposite in="SourceGraphic"/></filter><filter id="u" x="199.529" y="64.768" width="17.564" height="19.456" filterUnits="userSpaceOnUse"><feOffset input="SourceAlpha"/><feGaussianBlur stdDeviation="1.5" result="v"/><feFlood flood-opacity="0.502"/><feComposite operator="in" in2="v"/><feComposite in="SourceGraphic"/></filter><filter id="w" x="209.547" y="64.479" width="15.505" height="19.772" filterUnits="userSpaceOnUse"><feOffset input="SourceAlpha"/><feGaussianBlur stdDeviation="1.5" result="x"/><feFlood flood-opacity="0.502"/><feComposite operator="in" in2="x"/><feComposite in="SourceGraphic"/></filter></defs><g transform="translate(-65.748 -505.155)"><g transform="translate(73.248 512.655)"><g class="m" transform="matrix(1, 0, 0, 1, -7.5, -7.5)"><path class="a" d="M295.045,596.8c0-2.922,0-5.263,0-8.185,0-.173,0-.523,0-.761,0-.043,2.522,1.275,9.32,1.275,5.034,0,10.794-2.33,10.794-7.014,0-.9.013-1.782.01-2.128,0-.118-.043.033-.151.1-.225.13-.448.264-.671.4a23.388,23.388,0,0,1-8.094,3.03,22.9,22.9,0,0,1-4.93.259,23.206,23.206,0,0,1-13.263-4.845,23.861,23.861,0,0,1-8.6-13.7,22.029,22.029,0,0,1-.54-5.6,23.855,23.855,0,0,1,1.163-6.473,23.547,23.547,0,0,1,16.771-15.6,22.613,22.613,0,0,1,7.489-.568,24.051,24.051,0,0,1,14.591,6.765,23.025,23.025,0,0,1,5.515,8.868c.783,2.511.843,6.044.843,12.046q-.023,4.513-.038,9.027c-.015,3.443-.032,2.805-.049,6.248a21.981,21.981,0,0,1-.515,5.977c-1.271,4.872-4.541,8.434-9.813,10.543a30.894,30.894,0,0,1-10.193,1.739A33.671,33.671,0,0,1,295.045,596.8Zm7.322-49.843a14.3,14.3,0,0,0-3.5.461,13.431,13.431,0,0,0-9.892,11.839,15.3,15.3,0,0,0,.729,5.454,13.349,13.349,0,0,0,11.41,8.963,13.627,13.627,0,0,0,6.544-1.031,13.389,13.389,0,0,0-5.3-25.687Z" transform="translate(-177.28 -518.29)"/></g><g class="l" transform="matrix(1, 0, 0, 1, -7.5, -7.5)"><path class="a" d="M166.826,571.447v11.744H156.377s.007-2.331,0-2.794c0-.325,0-.443,0-.566-.106.081-.584.382-.681.444a23.116,23.116,0,0,1-9.191,3.3,22.215,22.215,0,0,1-5.112.134,23.5,23.5,0,0,1-13.072-5.386,23.084,23.084,0,0,1-7.772-12.538,23.641,23.641,0,0,1-.638-5.737A23.615,23.615,0,0,1,138.156,537.4a22.593,22.593,0,0,1,5.774-.533,23.863,23.863,0,0,1,22.208,17.8,23.5,23.5,0,0,1,.688,5.1c.01.317,0,3.9,0,5.091Zm-10.079-11.217a9.877,9.877,0,0,0-.23-2.468,13.392,13.392,0,1,0-14.493,15.881,13.813,13.813,0,0,0,4.2-.237A13.358,13.358,0,0,0,156.747,560.231Z" transform="translate(-91.06 -518.27)"/></g><g class="k" transform="matrix(1, 0, 0, 1, -7.5, -7.5)"><path class="a" d="M433.464,564.316c-.13,0-1.47.01-1.759.01q-16.446,0-32.891,0c-.344,0-.878.01-1.247.01.028.109.1.271.134.386a12.228,12.228,0,0,0,.855,1.961,13.39,13.39,0,0,0,20.977,3.4,11.7,11.7,0,0,0,1.046-1.109c.39,0,.607,0,.864,0,2.169,0,10.534-.009,10.707-.009,0,0-.143.391-.283.677a23.332,23.332,0,0,1-16.053,13.5,22.025,22.025,0,0,1-6.192.642,23.371,23.371,0,0,1-12.712-4.215,23.629,23.629,0,0,1-9.321-13.608,23.309,23.309,0,0,1-.7-6.626,24.106,24.106,0,0,1,12.4-19.679,22.638,22.638,0,0,1,7.432-2.492,21.932,21.932,0,0,1,4.841-.244,23.046,23.046,0,0,1,12.338,4.3,22.6,22.6,0,0,1,9.307,13.8,23.686,23.686,0,0,1,.516,7.191C433.658,563,433.486,564.077,433.464,564.316Zm-23.271-7.181h11.715c.231,0,1.208,0,1.44,0,0,0-.189-.686-.206-.741a13.4,13.4,0,0,0-23.4-4.237,12.662,12.662,0,0,0-2.311,4.654c-.042.155-.086.308-.086.308.289.01.67.017.96.017Z" transform="translate(-235.83 -518.29)"/></g><g class="j" transform="matrix(1, 0, 0, 1, -7.5, -7.5)"><path class="a" d="M92.025,570.056c-.332,0-1.108.016-1.8.016a16.809,16.809,0,0,1-16.975-16.3c0-.781.008-28.013.013-41.117a12.44,12.44,0,0,0,1.316.007c2.487-.01,4.975,0,7.463,0,.82,0,.825,0,.828,0,0,3.066,0,6.942,0,10.008,0,1.451.02,1.274-.005,1.249,2.054.011,5.356,0,7.41.005.23,0,.4,0,.729,0h.108c0,.065,0,.274.005.33.006.174.009.347.009.521,0,2.719-.014,8.546-.014,8.763v.282c-.26.008-5.006,0-6.973,0-.2,0-1.05,0-1.253,0,0,0-.009.021-.017.7,0,.145,0,.289,0,.434,0,6.191,0,13.192,0,19.383a6.715,6.715,0,0,0,6.732,6.511c.578,0,2.4-.021,2.4-.02C92,560.887,92.025,569.731,92.025,570.056Z" transform="translate(-65.75 -505.16)"/></g><g class="i" transform="matrix(1, 0, 0, 1, -7.5, -7.5)"><path class="a" d="M231.084,568.759c0-4.369,0-8.348,0-12.716a18.57,18.57,0,0,1,.851-5.677,17.686,17.686,0,0,1,3.4-5.9,19.993,19.993,0,0,1,8.971-5.852,23.454,23.454,0,0,1,3.288-.782,38.34,38.34,0,0,1,5.973-.285h.579s0,.761,0,.905c0,2.864,0,5.893,0,8.757l-.69.007c-2.847,0-4.634.162-6.421,1.131a8.63,8.63,0,0,0-4.717,7.581c.008.347,0,.694,0,1.041q0,12.672,0,25.344c0,1.417,0,1.251,0,1.251-2.922.006-7.086,0-10.008,0-.2,0-1.025,0-1.227,0,0,0,0-.081,0-.575q0-.347,0-.694Z" transform="translate(-151.34 -518.66)"/></g><g class="h" transform="matrix(1, 0, 0, 1, -7.5, -7.5)"><path class="a" d="M516.563,570.056c-.332,0-1.108.016-1.8.016a16.809,16.809,0,0,1-16.975-16.3c0-.781.008-28.013.013-41.117a12.442,12.442,0,0,0,1.316.007c2.487-.01,4.975,0,7.463,0,.82,0,.825,0,.828,0,0,3.066,0,6.942,0,10.008,0,1.451.02,1.274-.005,1.249,2.054.011,5.356,0,7.41.005.23,0,.4,0,.729,0h.108c0,.065,0,.274.006.33.006.174.009.347.009.521,0,2.719-.015,8.546-.015,8.763v.282c-.26.008-5.005,0-6.972,0-.2,0-1.051,0-1.253,0,0,0-.009.021-.018.7,0,.145,0,.289,0,.434,0,6.191,0,13.192,0,19.383a6.716,6.716,0,0,0,6.733,6.511c.578,0,2.4-.021,2.4-.02C516.542,560.887,516.563,569.731,516.563,570.056Z" transform="translate(-295.98 -505.16)"/></g></g><g transform="translate(217.405 574.134)"><g class="g" transform="matrix(1, 0, 0, 1, -151.66, -68.98)"><path class="a" d="M396.294,648.914a4.05,4.05,0,0,1,1.547-1.346,4.619,4.619,0,0,1,2.078-.461,3.82,3.82,0,0,1,3.236,1.59c.595.842.752,1.842.752,3.693v5.172H402.65v-5.442a4.356,4.356,0,0,0-.623-2.831,2.574,2.574,0,0,0-2.238-.925,3.223,3.223,0,0,0-1.528.354,2.678,2.678,0,0,0-1.072,1.034,3.566,3.566,0,0,0-.336.96,6.334,6.334,0,0,0-.075.722q-.028.471-.028,1.142v4.986h-1.239v-5.741a3.975,3.975,0,0,0-.718-2.614,2.73,2.73,0,0,0-2.2-.844,3.338,3.338,0,0,0-1.57.359,2.584,2.584,0,0,0-1.067,1.03,3.239,3.239,0,0,0-.345.96,13.194,13.194,0,0,0-.093,1.864v4.986h-1.3v-5.909a4.188,4.188,0,0,1,1.122-3.174,4.888,4.888,0,0,1,1.552-1.038,4.484,4.484,0,0,1,1.808-.334,4.587,4.587,0,0,1,2.12.484A3.638,3.638,0,0,1,396.294,648.914Z" transform="translate(-236.57 -578.07)"/></g><g class="f" transform="matrix(1, 0, 0, 1, -151.66, -68.98)"><path class="a" d="M435.132,655.918a4.167,4.167,0,0,1-1.654,1.377,5.158,5.158,0,0,1-2.269.505,5.029,5.029,0,0,1-3.751-1.541,5.563,5.563,0,0,1,.033-7.644,5.176,5.176,0,0,1,3.83-1.55,4.851,4.851,0,0,1,2.157.48,5.237,5.237,0,0,1,2.94,5.155v4.839h-1.286Zm0-3.574a3.982,3.982,0,0,0-1.165-2.839,3.611,3.611,0,0,0-2.684-1.22,3.741,3.741,0,0,0-2.81,1.215,4.19,4.19,0,0,0-1.16,3.011,3.98,3.98,0,0,0,1.151,2.886,3.739,3.739,0,0,0,2.782,1.182,3.615,3.615,0,0,0,2.725-1.243A4.23,4.23,0,0,0,435.132,652.344Z" transform="translate(-257.03 -578.05)"/></g><g class="e" transform="matrix(1, 0, 0, 1, -151.66, -68.98)"><path class="a" d="M454.448,658.356a2.514,2.514,0,0,0,1.076,1.393,3.492,3.492,0,0,0,1.906.5,3.611,3.611,0,0,0,2.81-1.165,4.454,4.454,0,0,0,1.058-3.112V655.7a5.174,5.174,0,0,1-1.705,1.533,4.335,4.335,0,0,1-2.087.517,5.431,5.431,0,0,1-3.858-9.188,5.439,5.439,0,0,1,5.983-1.076,5.457,5.457,0,0,1,1.749,1.47c.389.541,1.206,1.5,1.206,4.607v2.259a6.077,6.077,0,0,1-1.347,4.2,4.728,4.728,0,0,1-3.713,1.5,5.12,5.12,0,0,1-2.978-.857,3.942,3.942,0,0,1-1.626-2.311Zm-.913-6.048a4.209,4.209,0,0,0,1.149,3.005,3.651,3.651,0,0,0,5.441,0,3.98,3.98,0,0,0,1.173-2.856,4.238,4.238,0,0,0-1.154-2.987,3.578,3.578,0,0,0-2.7-1.244,3.716,3.716,0,0,0-2.751,1.179A3.988,3.988,0,0,0,453.535,652.308Z" transform="translate(-271.23 -578.03)"/></g><g class="d" transform="matrix(1, 0, 0, 1, -151.66, -68.98)"><path class="a" d="M479.42,651.591a4.193,4.193,0,0,1,1.085-3.248,4.475,4.475,0,0,1,1.563-.973,5.047,5.047,0,0,1,1.853-.264,4.631,4.631,0,0,1,2,.419,3.335,3.335,0,0,1,1.4,1.2,3.784,3.784,0,0,1,.508,1.3,11.577,11.577,0,0,1,.154,2.18v5.358h-1.3v-5.741a4.058,4.058,0,0,0-.694-2.632,2.748,2.748,0,0,0-2.222-.825,3.338,3.338,0,0,0-1.57.359,2.582,2.582,0,0,0-1.067,1.03,3.24,3.24,0,0,0-.345.96,13.2,13.2,0,0,0-.093,1.864v4.986H479.42Z" transform="translate(-286.02 -578.07)"/></g><g class="c" transform="matrix(1, 0, 0, 1, -151.66, -68.98)"><path class="a" d="M511.216,653.585c0,2.195-.587,2.933-.978,3.306a3.746,3.746,0,0,1-1.423.9,6.332,6.332,0,0,1-2.038.279,4.926,4.926,0,0,1-2.061-.419,3.342,3.342,0,0,1-1.4-1.2,3.8,3.8,0,0,1-.508-1.3,11.579,11.579,0,0,1-.154-2.181v-5.358h1.3v5.74a4.059,4.059,0,0,0,.694,2.633,2.75,2.75,0,0,0,2.222.825,3.634,3.634,0,0,0,1.738-.314c.81-.415,1.047-.912,1.244-2.035a14.1,14.1,0,0,0,.093-1.864v-4.985h1.276Z" transform="translate(-298.62 -578.35)"/></g><g class="b" transform="matrix(1, 0, 0, 1, -151.66, -68.98)"><path class="a" d="M524.54,654.271h1.352v.037a2.31,2.31,0,0,0,.55,1.582,1.738,1.738,0,0,0,1.361.627,1.8,1.8,0,0,0,1.286-.484,1.607,1.607,0,0,0,.512-1.22,1.706,1.706,0,0,0-.4-1.182,3.718,3.718,0,0,0-1.472-.838,5.221,5.221,0,0,1-2.222-1.234,2.584,2.584,0,0,1-.527-1.7,2.731,2.731,0,0,1,.867-2.039,2.929,2.929,0,0,1,2.115-.838,2.883,2.883,0,0,1,2.087.745,2.734,2.734,0,0,1,.61.9,3,3,0,0,1,.219,1.179H529.47a1.632,1.632,0,0,0-.116-.638,1.4,1.4,0,0,0-.336-.48,1.461,1.461,0,0,0-.494-.308,1.857,1.857,0,0,0-.648-.1,1.446,1.446,0,0,0-1.072.433,1.465,1.465,0,0,0-.428,1.075,1.576,1.576,0,0,0,.172.763,1.53,1.53,0,0,0,.568.558,4.845,4.845,0,0,0,1.114.456q.717.214.951.317a2.792,2.792,0,0,1,1.864,2.821,2.881,2.881,0,0,1-.922,2.179,3.263,3.263,0,0,1-2.339.875,3.024,3.024,0,0,1-2.32-.939,3.485,3.485,0,0,1-.685-1.125A4.02,4.02,0,0,1,524.54,654.271Z" transform="translate(-310.49 -578)"/></g></g></g></svg>