<svg xmlns="http://www.w3.org/2000/svg" width="33.552" height="27.818" viewBox="0 0 33.552 27.818"><defs><style>.a{fill:#fff;}</style></defs><g transform="translate(0 0)"><path class="a" d="M1208.932,1348.959c.09-.076.186-.146.269-.229l12.452-12.449c.083-.083.169-.161.295-.281.007.163.017.277.017.391,0,2.226.005,4.451-.005,6.677,0,.271.064.363.348.407a22.617,22.617,0,0,1,14.054,7.352,25.435,25.435,0,0,1,5.088,9.234c.392,1.228.692,2.485,1.034,3.728l-.082.029c-.371-.468-.735-.942-1.115-1.4a21.138,21.138,0,0,0-12.593-7.381,35.354,35.354,0,0,0-6.5-.618c-.063,0-.126.009-.224.016v7.6c-.148-.137-.242-.218-.329-.306l-12.474-12.473c-.077-.077-.157-.151-.235-.226Z" transform="translate(-1208.932 -1336)"/></g></svg>