<svg xmlns="http://www.w3.org/2000/svg" width="87.663" height="87.5" viewBox="0 0 87.663 87.5">
  <defs>
    <style>.a{fill:#fc9b09;}</style>
  </defs>
  <g transform="translate(-483.5 -184.5)">
    <g transform="translate(483.5 184.5)">
      <path class="a"
            d="M550.316,211.333l18.088,4.754L572.965,198h0a3.592,3.592,0,0,0-4.387,2.561l-2.052,7.807a42.977,42.977,0,1,0-1.4,47.363A3.278,3.278,0,0,0,564,250.965h0a39.455,39.455,0,1,1,.176-39.667l-9.477-2.517a3.582,3.582,0,0,0-4.383,2.552Zm0,0"
            transform="translate(-486.232 -187.233)"/>
      <path class="a"
            d="M527.25,272a43.759,43.759,0,1,1,36.244-68.24l1.61-6.127a4.365,4.365,0,0,1,5.324-3.108l.735.193-4.937,19.575-19.58-5.146.2-.742a4.349,4.349,0,0,1,5.323-3.1l7.631,2.027A38.688,38.688,0,0,0,488.561,228.3a38.8,38.8,0,0,0,39.111,38.639,38.926,38.926,0,0,0,32.934-19.093l.376-.638.652.353a4.046,4.046,0,0,1,1.384,5.883A43.827,43.827,0,0,1,527.25,272Z"
            transform="translate(-483.5 -184.5)"/>
    </g>
    <g transform="translate(514.372 209.5)">
      <path class="a"
            d="M642.862,339.053v-3.281a11.371,11.371,0,0,0,7.3-2.737,8.311,8.311,0,0,0,2.736-6.386c0-2.736-.737-4.754-2.368-6.035a15.862,15.862,0,0,0-7.491-3.28h-.175v-8.4a13.781,13.781,0,0,1,6.386,2.561l2.93-4.018a17.88,17.88,0,0,0-9.316-3.281V302h-2.737v2.193a11.21,11.21,0,0,0-6.947,2.737,8.308,8.308,0,0,0-2.737,6.386c0,2.543.737,4.561,2.369,5.841,1.456,1.281,4.018,2.369,7.3,3.105v8.579A15.188,15.188,0,0,1,632.441,327l-3.281,3.842a18.748,18.748,0,0,0,10.965,4.93v3.281Zm.175-15.895a11.036,11.036,0,0,1,3.648,1.649,3.986,3.986,0,0,1,.912,2.561,2.97,2.97,0,0,1-1.281,2.561,6.63,6.63,0,0,1-3.28,1.281Zm-6.386-7.842a3.47,3.47,0,0,1-.912-2.368,3.382,3.382,0,0,1,1.088-2.562,5.984,5.984,0,0,1,3.28-1.281v7.86a8.763,8.763,0,0,1-3.456-1.649Zm0,0"
            transform="translate(-628.089 -301.232)"/>
      <path class="a"
            d="M639.816,337.088h-4.272v-3.361a19.655,19.655,0,0,1-10.709-5.045l-.56-.5,4.269-5,.584.5a15.24,15.24,0,0,0,6.4,3.5v-7.046a17.02,17.02,0,0,1-7.021-3.124c-1.755-1.387-2.645-3.551-2.645-6.432a9.1,9.1,0,0,1,2.99-6.956,11.821,11.821,0,0,1,6.695-2.87V298.5h4.272v2.248a18.839,18.839,0,0,1,8.984,3.361l.649.447-3.849,5.278-.621-.458a12.66,12.66,0,0,0-5.163-2.261v6.828a16.305,16.305,0,0,1,7.391,3.348c1.779,1.407,2.644,3.574,2.644,6.625a9.105,9.105,0,0,1-2.989,6.955,11.785,11.785,0,0,1-7.046,2.879Zm5.442-29.389,2.013-2.76a17.022,17.022,0,0,0-8.263-2.712m-.726,30.087.724-.041a10.654,10.654,0,0,0,6.827-2.54,7.511,7.511,0,0,0,2.483-5.817c0-2.559-.678-4.335-2.074-5.431l-.034-.028a15.173,15.173,0,0,0-7.062-3.088h-.864V305.3l.885.138m-.885-5.4h-1.2v2.145l-.719.046a10.379,10.379,0,0,0-6.482,2.54,7.51,7.51,0,0,0-2.484,5.817c0,2.395.7,4.157,2.075,5.237l.033.028a16.564,16.564,0,0,0,6.959,2.933l.6.135V329l-.877-.126a15.515,15.515,0,0,1-7.466-3.526l-2.292,2.685a17.9,17.9,0,0,0,9.955,4.248l.7.064v3.214"
            transform="translate(-624.275 -298.5)"/>
    </g>
  </g>
</svg>
