<svg xmlns="http://www.w3.org/2000/svg" width="38.791" height="27.818" viewBox="0 0 38.791 27.818"><defs><style>.a{fill:#fff;}</style></defs><g transform="translate(0 0)"><path class="a" d="M2035.663,1762.149a9.063,9.063,0,0,1,1.02-2.981,4.313,4.313,0,0,1,3.57-2.357c1.414-.036,2.829,0,4.244-.018a1.557,1.557,0,0,0,.707-.181c4.509-2.417,9.02-4.828,13.515-7.291.7-.382,1.392.036,1.366,1.239-.052,2.418-.014,4.84-.018,7.261,0,.271.013.438.263.551,1.678.752,2.624,2.57,2.6,4.917a4.868,4.868,0,0,1-2.7,4.54c-.038.016-.074.039-.152.081v.573c0,2.33-.042,4.661.018,6.988.03,1.182-.505,1.839-1.476,1.305-4.066-2.236-8.15-4.411-12.228-6.608-.16-.086-.323-.163-.52-.262,0,1.936,0,3.809,0,5.681,0,1.056-.266,1.413-1.048,1.414-.993,0-1.986,0-2.979,0-.646,0-.944-.4-.945-1.27q0-2.866,0-5.733v-.5a10.525,10.525,0,0,1-2.106-.53c-1.662-.79-2.672-2.407-3.041-4.726a1.406,1.406,0,0,0-.08-.235Z" transform="translate(-2035.663 -1749.184)"/><path class="a" d="M2312.016,1839.5c-.963,0-1.927.005-2.89,0-.787-.005-1.269-.432-1.269-1.107s.456-1.083,1.272-1.086q2.918-.008,5.836,0a1.114,1.114,0,0,1,1.259,1.063,1.137,1.137,0,0,1-1.263,1.13C2313.979,1839.511,2313,1839.5,2312.016,1839.5Z" transform="translate(-2277.433 -1824.473)"/><path class="a" d="M2296.364,1877.658a4.619,4.619,0,0,1,.9.5c.727.683,1.431,1.393,2.124,2.111a1.068,1.068,0,0,1,.053,1.6,1.093,1.093,0,0,1-1.6-.049q-1.092-1.064-2.156-2.157a.945.945,0,0,1-.213-1.195A4.416,4.416,0,0,1,2296.364,1877.658Z" transform="translate(-2266.738 -1858.949)"/><path class="a" d="M2296.227,1784.483a4.392,4.392,0,0,1-.836-.73.89.89,0,0,1,.135-1.156c.741-.774,1.495-1.538,2.275-2.272a1.043,1.043,0,0,1,1.476.066,1.024,1.024,0,0,1,.069,1.432c-.743.8-1.523,1.56-2.313,2.31A3,3,0,0,1,2296.227,1784.483Z" transform="translate(-2266.65 -1775.555)"/></g></svg>