<svg xmlns="http://www.w3.org/2000/svg" width="93" height="93" viewBox="0 0 93 93">
  <defs>
    <style>.a{fill:#fff;}</style>
  </defs>
  <g transform="translate(-478 -179)">
    <path class="a"
          d="M489.625,193.531V181.906a2.906,2.906,0,1,1,5.813,0v11.625a2.906,2.906,0,0,1-5.813,0Zm49.406,2.906a2.905,2.905,0,0,0,2.906-2.906V181.906a2.906,2.906,0,1,0-5.813,0v11.625a2.905,2.905,0,0,0,2.906,2.906ZM571,248.749A23.25,23.25,0,1,1,547.749,225.5,23.252,23.252,0,0,1,571,248.749Zm-5.813,0a17.438,17.438,0,1,0-17.438,17.438,17.456,17.456,0,0,0,17.438-17.438Zm-63.938-34.874H489.625V225.5h11.625Zm-11.625,29.062h11.625V231.312H489.625ZM507.062,225.5h11.625V213.875H507.062Zm0,17.438h11.625V231.312H507.062Zm-23.249,5.233V208.062h63.937v11.625h5.813v-22.67a6.342,6.342,0,0,0-6.3-6.392h-2.424v2.906a5.812,5.812,0,1,1-11.625,0v-2.906H498.344v2.906a5.813,5.813,0,0,1-11.626,0v-2.906H484.3a6.345,6.345,0,0,0-6.3,6.392v51.154a6.351,6.351,0,0,0,6.3,6.391h34.389v-5.813H484.3a.549.549,0,0,1-.485-.578ZM536.125,225.5V213.875H524.5V225.5Zm20.344,23.249h-8.719v-8.718a2.906,2.906,0,1,0-5.812,0v11.625a2.9,2.9,0,0,0,2.905,2.906h11.626a2.906,2.906,0,0,0,0-5.813Zm0,0"/>
  </g>
</svg>
