<svg id="Camada_1" data-name="Camada 1" xmlns="http://www.w3.org/2000/svg" viewBox="0 0 168 168">
  <defs>
    <style>
      .cls-1{fill:#e6e6e7;}.cls-2{fill:#6a4d4c;}.cls-3{fill:#b6dff6;}.cls-4{fill:#5c4348;}.cls-5{fill:#795751;}.cls-6{fill:#a0d1f0;}.cls-7{fill:#efc087;}.cls-8{fill:#e5af78;}.cls-9{fill:#d39c70;}.cls-10{fill:#00abec;}
    </style>
  </defs>
  <title>icones novos</title>
  <rect class="cls-1" width="168" height="168" rx="84"/>
  <path class="cls-2"
        d="M73,13.18c9-2,17.69-1.62,26.15,2.14,0,1.61,0,3.22-.07,4.82-.31,4-.07,7.88,2.17,11.36S105.65,38.4,109,41a58,58,0,0,1,7,7,7.73,7.73,0,0,1,2.37,4.4,109.33,109.33,0,0,1,0,23.37,113.78,113.78,0,0,1-10.26,35l-2.15-.62c-1.93-6-4.18-7.34-8.33-5.1-.6-2.6-.14-5.26-.4-7.88l.1-1.72c1.88-1.08,3.75-2.17,5.64-3.22a12.58,12.58,0,0,0,6.76-10.16c.67-6.55,1-13.15,2-19.67.83-5.67-1.34-9.88-5.16-13.62l-7.47-7.32C98.18,39,97.7,39.07,95.2,41a23.48,23.48,0,0,1-6.91,3.27,2.59,2.59,0,0,0-2.42-.31,57.09,57.09,0,0,1-14.94.25A82.64,82.64,0,0,0,56,44.09c-1.58.15-1.93-.24-1.65-1.58.49-2.39.92-4.8,1.57-7.14,2.61-9.31,7-17.24,16.49-21.28C72.68,14,72.79,13.49,73,13.18Z"/>
  <path class="cls-3"
        d="M106,110.16l2.15.62c4,1.73,7.48,3.14,11.31,4.61,1.86.84,4.16,1.73,6.14,2.81a24.27,24.27,0,0,1,4.16,2.77c-1.93,2.74-5,4.23-7.48,6.23-4.76,3.76-7.54,6.78-7.33,14.52.08,1.34,0,2.06,0,3.1H50.23c0-1.89,0-3.78,0-5.67a11.46,11.46,0,0,0-4.88-9.93c-3.4-2.61-7-5-9.91-8.27,1.34-1.8,4.58-3.24,6.86-4.2,1.18-.5,1.87-.85,3.44-1.38,4.69-1.29,9-3.66,13.49-5.32,3.13,4.35,6.24,8.71,9.4,13,1.66,2.28,3,2.45,5.19.71,1.17-.94,2.32-1.91,3.47-2.88.64-.54,1.6-2,2.48-1.58s0,1.88,0,2.59c0,4.63,0,9.26,0,13.89,0,1.13-.1,2.22,1.32,2.79,2.29.92,4.31-.36,4.34-3,.06-5.25,0-10.51,0-16,2.42.85,3.84,2.53,5.47,3.86,2.73,2.23,3.88,2.11,5.93-.74C99.89,118.47,102.62,114.08,106,110.16Z"/>
  <path class="cls-4"
        d="M59.25,110.05c-4.54,1.66-8.8,4-13.49,5.32-3.78-1.69-4.78-4.59-4.69-8.64.26-11.54-.12-23.08.16-34.62.31-12.83,1.61-25.56,6.69-37.59C52.43,23.84,59.78,16.3,71.3,13.37A11.4,11.4,0,0,1,73,13.18c-.17.31-.28.8-.54.91-9.44,4-13.88,12-16.49,21.28-.65,2.34-1.08,4.75-1.57,7.14-.28,1.34.07,1.73,1.65,1.58a82.64,82.64,0,0,1,14.92.07,57.09,57.09,0,0,0,14.94-.25,2.59,2.59,0,0,1,2.42.31L86.16,45c-7,2.37-14.37,2.83-21.4,5-7.29,2.22-11.1,6.92-11.09,14.43,0,5.48,1.2,10.87,1.49,16.32C55.5,87,58.79,91,64.22,93.57c1.33.64,2.84,1.1,3.74,2.43-.33,3,.26,6.06-.71,9-1.5-.72-2.94-2.07-4.64-.56A9.85,9.85,0,0,0,59.25,110.05Z"/>
  <path class="cls-5"
        d="M119.48,115.39c-4-1.52-8.22-3.41-11.31-4.61a113.78,113.78,0,0,0,10.26-35,109.33,109.33,0,0,0,0-23.37A7.73,7.73,0,0,0,116,48a58,58,0,0,0-7-7c-3.35-2.63-5.55-6.07-7.79-9.53S98.73,24.13,99,20.14c.12-1.6,0-3.21.07-4.82,6,2.1,10.5,6.22,14,11.4,5.4,8,7.83,17.13,9.29,26.57,2.88,18.7,1.27,37.52,1.7,56.28C124.17,112.86,121.63,113.94,119.48,115.39Z"/>
  <path class="cls-6"
        d="M35.46,121c2.87,3.27,6.51,5.66,9.91,8.27a11.46,11.46,0,0,1,4.88,9.93c0,1.89,0,3.78,0,5.67-3.49,0-7-.13-10.47.08-5,.31-7.29-2.29-7.55-6.74s-.53-8.86.47-13.23A6.67,6.67,0,0,1,35.46,121Z"/>
  <path class="cls-6"
        d="M115,144.82c0-1-.05-1.61,0-3.1-.21-7.39,2.16-10.93,7.33-14.52,2.64-1.84,5.55-3.49,7.48-6.23a6.57,6.57,0,0,1,2.84,5.8c0,4,0,8.09,0,12.14-.05,3.65-2.31,5.89-6,5.94S118.87,144.83,115,144.82Z"/>
  <path class="cls-7"
        d="M99.13,41.47l7.47,7.32c3.82,3.74,6,8,5.16,13.62-1,6.52-1.3,13.12-2,19.67A12.58,12.58,0,0,1,103,92.24c-1.89,1.05-3.76,2.14-5.64,3.22-1.54.78-3,1.54-4.43,2.37-3.25,1.86-6.14,4.65-10.32,4-.31-.35-.56-.89-.94-1.13-6.24-4-9.7-9.93-11.31-16.88a93.94,93.94,0,0,1-2-24.37,4.72,4.72,0,0,1,2.82-4.51,45.46,45.46,0,0,1,6-2.44C85.28,50.25,93.13,47.72,99.13,41.47Z"/>
  <path class="cls-8"
        d="M99.13,41.47c-6,6.25-13.85,8.78-21.88,11a45.46,45.46,0,0,0-6,2.44,4.72,4.72,0,0,0-2.82,4.51,93.94,93.94,0,0,0,2,24.37c1.61,7,5.07,12.9,11.31,16.88a6.26,6.26,0,0,1,1.11,1.13,8.51,8.51,0,0,1-4.09-.37C75,99.87,71.83,97.26,68,96c-1.5-.82-2.44-1.34-3.83-2.26-5.19-3.41-8.32-5.53-9-13-.29-5.45-1.48-10.84-1.49-16.32,0-7.51,3.8-12.21,11.09-14.43,7-2.14,14.43-2.6,21.4-5l2.13-.75A24,24,0,0,0,95,41C97.58,39,98.18,39,99.13,41.47Z"/>
  <path class="cls-6"
        d="M59.25,110.05a10.37,10.37,0,0,1,3.36-5.61c1.88-1.69,3.55-.16,4.64.56a74.7,74.7,0,0,0,8.51,6.39q2.77,2.17,5.54,4.36a1.79,1.79,0,0,0,2.53,0c4.58-3.62,9.49-6.83,13.86-10.74,4.15-2.24,6.4-.87,8.33,5.1-3.4,3.92-6.13,8.31-9.16,12.5-2,2.85-3.2,3-5.93.74-1.63-1.33-3.05-3-5.47-3.86,0,5.54,0,10.8,0,16,0,2.66-2,3.94-4.34,3-1.42-.57-1.32-1.66-1.32-2.79,0-4.63,0-9.26,0-13.89,0-.71,0-2.59,0-2.59-.4-.06-1.84,1-2.48,1.58-1.15,1-2.3,1.94-3.47,2.88-2.15,1.74-3.53,1.57-5.19-.71C65.49,118.76,62.38,114.4,59.25,110.05Z"/>
  <path class="cls-9"
        d="M75.76,111.39A74.7,74.7,0,0,1,67.25,105c1-2.94.38-6,.71-9,3.87,1.26,7.06,3.87,10.76,5.46a11.11,11.11,0,0,0,4.09.37c4.28.39,6.93-2.2,10.15-4,1.66-.93,2.91-1.6,4.43-2.37,0,.57-.06,1.14-.1,1.72-2.1,1.29-2.44,3.83-4,5.58C88.61,108.1,82.66,110.67,75.76,111.39Z"/>
  <path class="cls-8"
        d="M75.76,111.39c6.9-.72,12.85-3.29,17.55-8.63,1.54-1.75,1.88-4.29,4-5.58.26,2.62-.2,5.28.4,7.88-4.37,3.91-9.28,7.12-13.86,10.74a1.79,1.79,0,0,1-2.53,0Q78.54,113.56,75.76,111.39Z"/>
  <path class="cls-10"
        d="M109.08,132.33h-2.67L104,137.12l0-.06c-.3-.32-.55-.57-.85-.84s-.39-.35-.6-.52l-.62-.47c-.06,0-.06-.06,0-.1.32-.28,3.37-2.8,3.37-2.8h-3.22l-3.39,2.82v-1.64s0,0,0,0a1.76,1.76,0,0,0-.58-.27,14.6,14.6,0,0,0-1.93-.55c-.61-.13-1.24-.22-1.86-.29-.31,0-1.07-.07-1.74-.07a8.22,8.22,0,0,0-1,.06,8.68,8.68,0,0,0-1.35.25,4.05,4.05,0,0,0-1.14.52,1.6,1.6,0,0,0-.6.71,1.48,1.48,0,0,0-.12.72,1.54,1.54,0,0,0,.38.94,2.39,2.39,0,0,0,1.14.65,24.44,24.44,0,0,0,3.1.71c.35.06.53.15.6.29a.32.32,0,0,1-.06.38c-.65.57-2.9.26-4.19-.25a6.93,6.93,0,0,1-1-.45v2.09l.12,0a11,11,0,0,0,1.83.52,12.77,12.77,0,0,0,1.82.19,8.87,8.87,0,0,0,1.59-.11,3.28,3.28,0,0,0,1.85-.81,2.09,2.09,0,0,0,.4-.55,1.87,1.87,0,0,0,.16-1.22,2.23,2.23,0,0,0-1.66-1.66,16,16,0,0,0-3.08-.71.76.76,0,0,1-.36-.13.29.29,0,0,1,0-.48,1.1,1.1,0,0,1,.46-.17,4.73,4.73,0,0,1,.69-.07,10.65,10.65,0,0,1,2.63.23,7.64,7.64,0,0,1,1,.24,6.29,6.29,0,0,1,.75.28c.12.06.12.07.12.17,0,1,0,4.95,0,4.95h2.09v-1.8l1.54-1.28.07,0a14.89,14.89,0,0,1,1.41,1.16c.27.26.54.55.79.83s.52.63.77,1l.06.09h1.84l.57-1.24h4l.56,1.24h2.43Zm-2.69,4.54c.44-1,.87-1.91,1.31-2.89.49,1.07.85,1.88,1.31,2.89Z"/>
  <path class="cls-3" d="M115,162s-11.28,6-32.08,6c-17.31,0-32.7-7.11-32.7-7.11V144.82H115Z"/>
  <path class="cls-6" d="M32,149.83s2.78,2.26,7.59,5.36a96.43,96.43,0,0,0,10.67,5.7v-24L32,132.3Z"/>
  <path class="cls-6" d="M115,162a86.86,86.86,0,0,0,9.53-4.53,67.67,67.67,0,0,0,8.1-5.12V138.3l-17.63,2Z"/>
</svg>
