<svg id="Camada_1" data-name="Camada 1" xmlns="http://www.w3.org/2000/svg" viewBox="0 0 168 168">
  <defs>
    <style>
      .cls-1{fill:#e6e6e7;}.cls-2{fill:#282425;}.cls-3{fill:#efc087;}.cls-4{fill:#6a4d4c;}.cls-5{fill:#e5af78;}.cls-6{fill:#5c4348;}.cls-7{fill:#434244;}.cls-8{fill:#795751;}.cls-9{fill:#d39c70;}.cls-10{fill:#00abec;}
    </style>
  </defs>
  <title>icones novos</title>
  <rect class="cls-1" width="168" height="168" rx="84"/>
  <path class="cls-2"
        d="M29.49,144.34c-3.59,0-5.7-2.27-5.73-4.85-.07-6.38-.52-12.75.3-19.14a8.17,8.17,0,0,1,6.18-7.23c8.61-2.51,17.91-4.67,26.73-6.31.78.3.54,1.15.86,1.83,2.54,5.52,5.16,11,7.58,16.57,1.54,3.56,3.18,4,6.4,1.78,2.18-1.49,3.31-4.32,7.45-4.23.64.63,4.09,1.84,4.3,2.67-1,6.35-.13,12.75-.76,19.13-.24.21.65.12.41.34C72.47,144.9,37.05,144.34,29.49,144.34Z"/>
  <path class="cls-2"
        d="M110.71,107c3.42-.09,6.55,1.3,9.83,1.93,5.2,1,10.31,2.47,15.47,3.7a7.78,7.78,0,0,1,5.23,3.42c-2.32,3.25-5.54,5.65-8.57,8-6.39,5-11.16,10.54-9.53,19.38a6,6,0,0,1,0,.85l-.57.57c-2.08,0-39.94.2-40.16,0,.34-6.63,6-13.78,5.57-20.36a2.2,2.2,0,0,1,.92-1.69c3.35.37,5.11,3.29,7.74,4.82,2.45,1.42,4.27.82,5.43-1.75C104.93,119.54,107.83,113.25,110.71,107Z"/>
  <path class="cls-3"
        d="M116.21,59.47c2.14,2.21,2.29,4.77,1.48,7.59-.68,2.34-1.28,4.71-1.78,7.09-.35,1.72-1,3-2.91,3.34-.6.1-1.14.22-1.13,1,.09,6-3,10.28-7.43,13.82-.46.38-1.27.82-1.65,1.1l-.58.59v0c-2.42.74-3.9,2.82-5.93,4.13-4.64,3-9.8,2.74-15,2.64,0-1-.79-1.37-1.5-1.87A22.25,22.25,0,0,1,70.12,81c-.49-9.58-.18-19.19-.1-28.79,0-3.81,3.27-6.58,7.1-6.9C82.41,44.84,88,44.59,93.44,43c3-.84,5.44-1.65,6.54-4.42a8.39,8.39,0,0,1,3.4-1.32,19.32,19.32,0,0,1,6,9.24A45.54,45.54,0,0,1,111.32,57c.07.89-.26,2.59,1.31,2.22C114,58.85,115.26,58.7,116.21,59.47Z"/>
  <path class="cls-4"
        d="M103.38,37.29a8.39,8.39,0,0,0-3.4,1.32,29.43,29.43,0,0,1-9.6,1.68c-2-1.13-4.31-.89-6.43-1.51-4.39-1.28-8.76-2.81-13.26-3.5-5.43-.82-10.83-.1-15.62,3.18C53.89,34,54.61,30,55.77,26c.66-2.27,2.43-4,2.85-6.34.93-2.12-1.78-1.65-2.09-3.17,4-2.33,8.6-3.17,13.12-4.11,7.59-1.57,15.24-2.47,23-.94,5.28,1,10,3.19,13.68,7.3a10.38,10.38,0,0,0,1.58,1.16,2.59,2.59,0,0,0,.06.84q3.72,9.21-3.85,15.65A5.44,5.44,0,0,0,103.38,37.29Z"/>
  <path class="cls-5"
        d="M90.38,40.29a28.06,28.06,0,0,0,9.6-1.68c-1.16,3.23-4.23,3.62-6.8,4.59-5.37,1.67-10.77,1.64-16.06,2.08-3.83.32-7.06,3.09-7.1,6.9-.08,9.6-.39,19.21.1,28.79a22.25,22.25,0,0,0,9.71,17.86c.71.5,1.47.87,1.5,1.87a15.48,15.48,0,0,1-11.41-3.58c-2.14-1.77-4.52-3.24-6.8-4.85C58.9,88.83,55.54,84.92,55.81,79c0-.84-.23-1.41-1.22-1.54-1.74-.24-2.47-1.47-2.85-3.07-.63-2.65-1.4-5.27-2-7.92-.51-2.27-.45-4.5,1.13-6.44a1.89,1.89,0,0,1,1.58-.54c3.86.6,3.78-1.87,4-4.61.51-5.91,3.22-10.47,8.89-13,5.22-2.32,10.65-1.8,16.09-1.39C84.43,40.72,87.42,41.1,90.38,40.29Z"/>
  <path class="cls-6"
        d="M90.38,40.29c-3,.81-5.95.43-8.94.21-5.44-.41-10.87-.93-16.09,1.39-5.67,2.52-8.38,7.08-8.89,13-.23,2.74-.15,5.21-4,4.61a1.89,1.89,0,0,0-1.58.54,22.7,22.7,0,0,0-3.4-9.39c-1.55-2.32-.82-5.14-.6-7.68.8-9.29,4-17.47,11.75-23.27C58.2,22,56.43,23.76,55.77,26c-1.16,4-1.88,7.93-.7,12.43,4.79-3.28,10.19-4,15.62-3.18,4.5.69,8.87,2.22,13.26,3.5C86.07,39.4,88.39,39.16,90.38,40.29Z"/>
  <path class="cls-7"
        d="M122.47,144.82a4.94,4.94,0,0,0,0-.86c-1.68-9,3.24-14.62,9.85-19.76,3.13-2.44,6.45-4.89,8.85-8.2a5.57,5.57,0,0,1,2.36,4.92c-.07,6.32,0,12.65,0,19,0,3.2-1.68,4.89-5,4.92C133.15,144.86,127.81,144.82,122.47,144.82Z"/>
  <path class="cls-7"
        d="M44.63,144.51a4.93,4.93,0,0,1,0-.86C45,134,41.4,129,34.79,123.89c-3.13-2.44-6.45-4.89-8.85-8.2a5.57,5.57,0,0,0-2.36,4.92c.07,6.32,0,12.65,0,19,0,3.2,1.68,4.89,5,4.92C34,144.55,39.29,144.51,44.63,144.51Z"/>
  <path class="cls-7"
        d="M110.71,107c-2.88,6.3-5.78,12.59-8.63,18.91-1.16,2.57-3,3.17-5.43,1.75-2.63-1.53-5-4.12-8.32-4.48-.93-2.21-2.69-2.84-4.4-4a5.67,5.67,0,0,1,1.85-2.07q9.38-8.46,18.77-16.89c1.36-1.1,2.67-1.08,3.59.12C109.61,102.21,111.81,104,110.71,107Z"/>
  <path class="cls-7"
        d="M79.26,122.76c-3,.13-5.27,2.74-7.45,4.23-3.22,2.21-4.86,1.78-6.4-1.78-2.42-5.57-5-11-7.58-16.57A15.82,15.82,0,0,1,57,107c-1.81-2.56,4.05-9.54,6-7.34a64.08,64.08,0,0,0,9.19,8.54c.72.73,8.74,7.76,11.62,11C82,120.33,80.26,120.5,79.26,122.76Z"/>
  <path class="cls-8"
        d="M103.38,37.29a5.44,5.44,0,0,1,.7-.87q7.59-6.45,3.85-15.65a2.59,2.59,0,0,1-.06-.84c3.95.49,6.35,3.15,8.12,6.31,4,7.13,4.49,15,4.51,23a3.36,3.36,0,0,1-1,2,17.77,17.77,0,0,0-3.32,8.28,5.46,5.46,0,0,0-3.58-.29c-1.57.33-1.24-1.33-1.31-2.22a45.54,45.54,0,0,0-1.9-10.43A19.32,19.32,0,0,0,103.38,37.29Z"/>
  <path class="cls-5"
        d="M83.74,119.13c-2.88-3.22-10.9-10.25-11.62-11,11.5.7,20.89-3.66,28.67-11.92.63-.67,1.47-1.21,1.43-2.3v0c0-.14.21-.31.58-.59.67-.48,1.1-.76,1.65-1.1,0,2.64.08,5.27.11,7.91q-9.39,8.44-18.77,16.89a5.56,5.56,0,0,0-1.84,2.07Z"/>
  <path class="cls-9"
        d="M102.22,93.93c0,1.09-.8,1.63-1.43,2.3-7.78,8.26-17.17,12.62-28.67,11.92a64.08,64.08,0,0,1-9.19-8.54c.06-2.45.13-4.89.19-7.34,2.28,1.61,4.66,3.08,6.8,4.85a15.48,15.48,0,0,0,11.41,3.58c5.16.1,10.32.36,15-2.64C98.32,96.75,99.8,94.67,102.22,93.93Z"/>
  <path class="cls-7"
        d="M88,124.48a2.2,2.2,0,0,1,.92-1.69c-.93-2.2-3.27-2.5-5-3.66h-.2c-1.74,1.2-3.48,1.37-4.48,3.63.64.63.34,1,.37,2.28,0,5.8-.32,7.21-.28,13.34.58,4.55,8.11,4.72,8.64,0A89.58,89.58,0,0,0,88,124.48Z"/>
  <path class="cls-10"
        d="M114.54,131.79h-2.65l-2.37,4.77,0-.05a11.15,11.15,0,0,0-.85-.84c-.19-.18-.39-.35-.6-.52l-.61-.47c-.06,0-.07-.05,0-.1l3.36-2.79h-3.21l-3.37,2.81V133s0,0,0,0a1.88,1.88,0,0,0-.58-.28,16,16,0,0,0-1.91-.54c-.61-.13-1.24-.21-1.86-.29-.31,0-1.07-.07-1.73-.07a7.93,7.93,0,0,0-1,.06,8.68,8.68,0,0,0-1.35.25,4.29,4.29,0,0,0-1.13.52,1.62,1.62,0,0,0-.61.71,1.57,1.57,0,0,0,.27,1.65,2.4,2.4,0,0,0,1.13.65,23,23,0,0,0,3.08.7c.36.07.53.15.61.29A.32.32,0,0,1,99,137c-.64.57-2.88.26-4.17-.24a8.69,8.69,0,0,1-1-.46v2.08l.11.05a10.86,10.86,0,0,0,1.83.51,12.53,12.53,0,0,0,1.81.19,9.93,9.93,0,0,0,1.58-.1,3.3,3.3,0,0,0,1.84-.82,1.9,1.9,0,0,0,.4-.54,1.81,1.81,0,0,0,.16-1.22,2.24,2.24,0,0,0-1.65-1.65,15.85,15.85,0,0,0-3.07-.71.89.89,0,0,1-.35-.12.29.29,0,0,1,0-.48,1.06,1.06,0,0,1,.47-.17,4.45,4.45,0,0,1,.68-.07,11.13,11.13,0,0,1,2.62.22,7.43,7.43,0,0,1,1,.25,4.57,4.57,0,0,1,.75.28c.12.05.12.07.12.16,0,1,0,4.94,0,4.94h2.08v-1.81l1.53-1.27.08,0a16.49,16.49,0,0,1,1.4,1.16c.27.26.54.54.79.82a11.42,11.42,0,0,1,.76,1l.06.09h1.84l.56-1.24h4l.56,1.24h2.42Zm-2.67,4.52,1.3-2.87c.49,1.06.85,1.87,1.31,2.87Z"/>
  <path class="cls-2" d="M122.12,158.82S107.24,168,84,168s-39.34-9.85-39.34-9.85V144.36h77.46Z"/>
  <path class="cls-7" d="M23.58,142.25a96.36,96.36,0,0,0,9.45,8.4,77.72,77.72,0,0,0,11.62,7.5V141.92l-21.07-5Z"/>
  <path class="cls-7" d="M122.13,158.82A85.24,85.24,0,0,0,134.51,151a75.28,75.28,0,0,0,9-7.88v-4.61L122.13,140Z"/>
</svg>
